<svg width="18" height="18" viewBox="0 0 18 18" fill="none" xmlns="http://www.w3.org/2000/svg">
<path d="M12.6003 10.8752C12.6003 10.5752 12.3753 10.2751 12.0003 10.2751H5.9996C5.69957 10.2751 5.39954 10.5002 5.39954 10.8752C5.39954 11.2503 5.62456 11.4753 5.9996 11.4753H12.0003C12.3003 11.4753 12.6003 11.1752 12.6003 10.8752Z" fill="#19A7CE"/>
<path d="M5.9996 8.47498H7.49976C7.7998 8.47498 8.09983 8.24995 8.09983 7.87491C8.09983 7.49987 7.7998 7.34985 7.49976 7.34985H5.9996C5.69957 7.34985 5.39954 7.57488 5.39954 7.94992C5.39954 8.32496 5.69957 8.47498 5.9996 8.47498Z" fill="#19A7CE"/>
<path d="M5.9996 13.3506C5.69957 13.3506 5.39954 13.5756 5.39954 13.9506C5.39954 14.3257 5.62456 14.5507 5.9996 14.5507H8.99993C9.29996 14.5507 9.59999 14.3257 9.59999 13.9506C9.59999 13.5756 9.37497 13.3506 8.99993 13.3506H5.9996Z" fill="#19A7CE"/>
<path d="M13.5004 2.09923H10.8752C10.5751 2.09923 10.2751 2.32425 10.2751 2.69929C10.2751 3.07433 10.5001 3.29936 10.8752 3.29936H13.5004C14.0255 3.29936 14.4755 3.74941 14.4755 4.27446V15.5257C14.4755 16.0507 14.0255 16.5008 13.5004 16.5008H4.49946C3.97441 16.5008 3.52436 16.0507 3.52436 15.5257V4.27446C3.52436 3.74941 3.97441 3.29936 4.49946 3.29936H6.97473V4.27446C6.97473 4.5745 7.19976 4.87453 7.5748 4.87453C7.94984 4.87453 8.17486 4.6495 8.17486 4.27446V1.27414C8.17486 0.974105 7.94984 0.674072 7.5748 0.674072C7.19976 0.674072 6.97473 0.824088 6.97473 1.12412V2.09923H4.49946C3.37434 2.09923 2.47424 2.99932 2.47424 4.12445V15.3757C2.47424 16.5008 3.37434 17.4759 4.57447 17.4759H13.5754C14.7006 17.4759 15.6757 16.5758 15.6757 15.3757V4.12445C15.6007 2.99932 14.6256 2.09923 13.5004 2.09923Z" fill="#19A7CE"/>
</svg>
