<svg width="20" height="20" viewBox="0 0 20 20" fill="none" xmlns="http://www.w3.org/2000/svg">
<path d="M19.1667 18.9584H0.833374C0.491707 18.9584 0.208374 18.675 0.208374 18.3334C0.208374 17.9917 0.491707 17.7084 0.833374 17.7084H19.1667C19.5084 17.7084 19.7917 17.9917 19.7917 18.3334C19.7917 18.675 19.5084 18.9584 19.1667 18.9584Z" fill="#292D32"/>
<path d="M16.4835 18.9667C16.1419 18.9667 15.8585 18.6834 15.8585 18.3417V14.625C15.8585 14.2833 16.1419 14 16.4835 14C16.8252 14 17.1085 14.2833 17.1085 14.625V18.3417C17.1085 18.6834 16.8335 18.9667 16.4835 18.9667Z" fill="#292D32"/>
<path d="M16.5001 15.25C15.1418 15.25 14.0417 14.15 14.0417 12.7916V10.9C14.0417 9.54166 15.1418 8.44165 16.5001 8.44165C17.8584 8.44165 18.9584 9.54166 18.9584 10.9V12.7916C18.9584 14.15 17.8584 15.25 16.5001 15.25ZM16.5001 9.69999C15.8334 9.69999 15.2917 10.2417 15.2917 10.9083V12.8C15.2917 13.4666 15.8334 14.0083 16.5001 14.0083C17.1668 14.0083 17.7084 13.4666 17.7084 12.8V10.9083C17.7084 10.2417 17.1668 9.69999 16.5001 9.69999Z" fill="#292D32"/>
<path d="M11.9165 18.9583C11.5749 18.9583 11.2915 18.675 11.2915 18.3333V5.02498C11.2915 3.69998 10.7332 3.1333 9.43323 3.1333H4.24158C2.93324 3.1333 2.36658 3.69998 2.36658 5.02498V18.3333C2.36658 18.675 2.08324 18.9583 1.74158 18.9583C1.39991 18.9583 1.11658 18.675 1.11658 18.3333V5.02498C1.11658 2.99998 2.22491 1.8833 4.24158 1.8833H9.43323C11.4416 1.8833 12.5415 2.99998 12.5415 5.02498V18.3333C12.5415 18.675 12.2582 18.9583 11.9165 18.9583Z" fill="#292D32"/>
<path d="M8.95814 7.5H4.83313C4.49146 7.5 4.20813 7.21667 4.20813 6.875C4.20813 6.53333 4.49146 6.25 4.83313 6.25H8.95814C9.29981 6.25 9.58314 6.53333 9.58314 6.875C9.58314 7.21667 9.29981 7.5 8.95814 7.5Z" fill="#292D32"/>
<path d="M8.95814 10.625H4.83313C4.49146 10.625 4.20813 10.3417 4.20813 10C4.20813 9.65833 4.49146 9.375 4.83313 9.375H8.95814C9.29981 9.375 9.58314 9.65833 9.58314 10C9.58314 10.3417 9.29981 10.625 8.95814 10.625Z" fill="#292D32"/>
<path d="M6.875 18.9584C6.53333 18.9584 6.25 18.675 6.25 18.3334V15.2084C6.25 14.8667 6.53333 14.5834 6.875 14.5834C7.21667 14.5834 7.5 14.8667 7.5 15.2084V18.3334C7.5 18.675 7.21667 18.9584 6.875 18.9584Z" fill="#292D32"/>
</svg>
