<svg width="20" height="20" viewBox="0 0 20 20" fill="none" xmlns="http://www.w3.org/2000/svg">
<path d="M12.05 16.525C11.8583 16.525 11.6666 16.4833 11.4916 16.3917C11.45 16.3667 11.4083 16.3417 11.375 16.3083L9.98331 15.125L8.61664 16.3083C8.57498 16.3417 8.53331 16.3667 8.49164 16.3917C8.16664 16.55 7.79998 16.5667 7.47498 16.425C7.14164 16.2833 6.89164 16.0083 6.77498 15.6667L6.50831 14.8667C6.36664 14.45 6.49164 13.925 6.79998 13.6083L8.19164 12.2417L8.18331 11.0333L5.67498 12.1083C5.25831 12.2833 4.82498 12.2667 4.49164 12.0417C4.16664 11.8333 3.97498 11.4417 3.97498 10.9917V10.2167C3.97498 9.56666 4.42498 8.875 5.02498 8.61666L8.18331 7.25833V5.66666C8.18331 4.85 8.72498 3.96666 9.44998 3.61666C9.80831 3.44166 10.2166 3.44166 10.575 3.61666C11.3 3.99166 11.8416 4.875 11.8416 5.66666V7.25833L15 8.61666C15.6 8.86666 16.05 9.55833 16.05 10.2167V10.9917C16.05 11.4417 15.8583 11.8333 15.5166 12.05C15.175 12.2667 14.75 12.2917 14.3333 12.1167L11.8333 11.0417V12.2667L13.1916 13.625C13.5 13.9333 13.625 14.4667 13.4833 14.8833L13.2166 15.675C13.1 16.0167 12.85 16.2917 12.5166 16.425C12.3666 16.4917 12.2083 16.525 12.05 16.525ZM9.99998 13.8917C10.2833 13.8917 10.5583 13.9833 10.7833 14.1583L12.075 15.2583L12.3 14.4833L10.9416 13.1333C10.725 12.925 10.5833 12.575 10.5833 12.2667V10.725C10.5833 10.35 10.7416 10.025 11.025 9.83333C11.3083 9.64166 11.675 9.61666 12.025 9.76666L14.7916 10.95L14.8 10.2167C14.8 10.0583 14.65 9.825 14.5083 9.76666L11.2166 8.35C10.8583 8.2 10.5916 7.8 10.5916 7.39166V5.66666C10.5916 5.34166 10.3083 4.88333 10.0166 4.73333C9.71664 4.88333 9.43331 5.33333 9.43331 5.66666V7.39166C9.43331 7.78333 9.17498 8.19166 8.80831 8.35L5.52498 9.76666C5.38331 9.825 5.22498 10.0667 5.22498 10.2167V10.95L7.98331 9.775C8.32498 9.625 8.68331 9.64166 8.97498 9.83333C9.26664 10.025 9.43331 10.35 9.43331 10.7333V12.275C9.43331 12.575 9.29164 12.925 9.07498 13.1417L7.67498 14.5167L7.94164 15.25L9.19998 14.1833C9.43331 13.9917 9.71664 13.8917 9.99998 13.8917ZM11.7083 7.2L11.7166 7.20833C11.7166 7.2 11.7083 7.2 11.7083 7.2Z" fill="#292D32"/>
<path d="M12.5 18.9584H7.49996C2.97496 18.9584 1.04163 17.025 1.04163 12.5V7.50002C1.04163 2.97502 2.97496 1.04169 7.49996 1.04169H12.5C17.025 1.04169 18.9583 2.97502 18.9583 7.50002V12.5C18.9583 17.025 17.025 18.9584 12.5 18.9584ZM7.49996 2.29169C3.65829 2.29169 2.29163 3.65835 2.29163 7.50002V12.5C2.29163 16.3417 3.65829 17.7084 7.49996 17.7084H12.5C16.3416 17.7084 17.7083 16.3417 17.7083 12.5V7.50002C17.7083 3.65835 16.3416 2.29169 12.5 2.29169H7.49996Z" fill="#292D32"/>
</svg>
