<svg width="30" height="30" viewBox="0 0 30 30" fill="none" xmlns="http://www.w3.org/2000/svg">
<path d="M10.7253 28.1876C10.4503 28.1876 10.1628 28.1376 9.90029 28.0251C9.31279 27.7751 8.86279 27.2876 8.66279 26.6751L8.11279 25.0251C7.86279 24.2751 8.08779 23.3376 8.63779 22.7751L11.4753 19.9251C11.5128 19.8876 11.5628 19.7501 11.5628 19.6876V16.6001L5.86279 19.0626C5.10029 19.3876 4.32529 19.3501 3.73779 18.9626C3.15029 18.5751 2.80029 17.8751 2.80029 17.0626V15.4501C2.80029 14.2251 3.67529 12.9126 4.78779 12.4751L11.5503 9.55015V6.00015C11.5503 4.48765 12.6128 2.75015 13.9628 2.05015C14.6128 1.72515 15.3628 1.72515 16.0003 2.05015C17.3628 2.75015 18.4253 4.47515 18.4253 5.98765V9.53765L25.2253 12.4626C26.3378 12.9376 27.1878 14.2126 27.1878 15.4501V17.0626C27.1878 17.8876 26.8503 18.5751 26.2503 18.9626C25.6503 19.3501 24.8878 19.3876 24.1253 19.0751L18.4253 16.6126V19.7001C18.4253 19.7501 18.4753 19.8751 18.5128 19.9126L21.3628 22.7751C21.9128 23.3251 22.1378 24.2876 21.8878 25.0251L21.3378 26.6751C21.1253 27.2876 20.6753 27.7751 20.0753 28.0126C19.4878 28.2501 18.8378 28.2251 18.2753 27.9501C18.2128 27.9126 18.1503 27.8751 18.0878 27.8251L15.1753 25.3751C15.0753 25.2876 14.8753 25.3001 14.7878 25.3751L11.8753 27.8251C11.8253 27.8751 11.7628 27.9126 11.7003 27.9376C11.4003 28.1126 11.0628 28.1876 10.7253 28.1876ZM11.9503 14.5501C12.2378 14.5501 12.5128 14.6251 12.7503 14.7876C13.1878 15.0751 13.4378 15.5626 13.4378 16.1376V19.7001C13.4378 20.2376 13.1753 20.8751 12.8003 21.2501L9.96279 24.1001C9.91279 24.1626 9.86279 24.3501 9.88779 24.4251L10.4378 26.0876C10.4753 26.2126 10.5628 26.2626 10.6128 26.2876C10.6503 26.3001 10.7128 26.3251 10.7878 26.3001L13.5878 23.9376C14.3753 23.2626 15.6128 23.2626 16.4003 23.9376L19.1878 26.2876C19.2753 26.3001 19.3378 26.2876 19.3753 26.2751C19.4253 26.2501 19.5253 26.2001 19.5628 26.0751L20.1128 24.4251C20.1378 24.3376 20.0878 24.1501 20.0378 24.1001L17.2003 21.2501C16.8253 20.9001 16.5503 20.2501 16.5503 19.7001V16.1376C16.5503 15.5751 16.7878 15.0876 17.2128 14.8001C17.6378 14.5126 18.1878 14.4751 18.7128 14.7001L24.8628 17.3501C25.0503 17.4251 25.1753 17.4251 25.2128 17.4001C25.2503 17.3751 25.3003 17.2626 25.3003 17.0626V15.4501C25.3003 14.9751 24.9003 14.3626 24.4753 14.1876L17.5003 11.1751C16.9503 10.9376 16.5628 10.3376 16.5628 9.73765V5.98765C16.5628 5.16265 15.9128 4.10015 15.1628 3.72515C15.0628 3.67515 14.9378 3.67515 14.8253 3.72515C14.1003 4.10015 13.4378 5.18765 13.4378 6.00015V9.75015C13.4378 10.3376 13.0503 10.9501 12.5003 11.1876L5.52529 14.2001C5.08779 14.3751 4.68779 14.9876 4.68779 15.4501V17.0626C4.68779 17.2626 4.73779 17.3751 4.77529 17.4001C4.81279 17.4251 4.93779 17.4251 5.12529 17.3501L11.2628 14.7001C11.4878 14.6001 11.7253 14.5501 11.9503 14.5501Z" fill="#2D77FF"/>
</svg>
