<svg width="20" height="20" viewBox="0 0 20 20" fill="none" xmlns="http://www.w3.org/2000/svg">
<path d="M13.75 7.19165C13.4083 7.19165 13.125 6.90832 13.125 6.56665V5.41665C13.125 4.54165 12.75 3.69165 12.1 3.09998C11.4417 2.49998 10.5917 2.22498 9.69167 2.30832C8.19167 2.44998 6.875 3.98332 6.875 5.58332V6.39165C6.875 6.73332 6.59167 7.01665 6.25 7.01665C5.90833 7.01665 5.625 6.73332 5.625 6.39165V5.57498C5.625 3.33332 7.43333 1.26665 9.575 1.05832C10.825 0.941651 12.025 1.33332 12.9417 2.17498C13.85 2.99998 14.375 4.18332 14.375 5.41665V6.56665C14.375 6.90832 14.0917 7.19165 13.75 7.19165Z" fill="#3C3C3C"/>
<path d="M12.5 18.9584H7.49997C3.64997 18.9584 2.9333 17.1667 2.74997 15.425L2.12497 10.4334C2.0333 9.53335 1.99997 8.24169 2.87497 7.27502C3.62497 6.44169 4.86664 6.04169 6.66664 6.04169H13.3333C15.1416 6.04169 16.3833 6.45002 17.125 7.27502C17.9916 8.24169 17.9666 9.53335 17.875 10.4167L17.25 15.425C17.0666 17.1667 16.35 18.9584 12.5 18.9584ZM6.66664 7.29169C5.2583 7.29169 4.29164 7.56669 3.79997 8.11669C3.39164 8.56669 3.2583 9.25835 3.36664 10.2917L3.99164 15.2834C4.1333 16.6167 4.49997 17.7167 7.49997 17.7167H12.5C15.5 17.7167 15.8666 16.625 16.0083 15.3L16.6333 10.2917C16.7416 9.27502 16.6083 8.58335 16.2 8.12502C15.7083 7.56669 14.7416 7.29169 13.3333 7.29169H6.66664Z" fill="#3C3C3C"/>
<path d="M12.85 10.9584C12.3833 10.9584 12.0083 10.5834 12.0083 10.125C12.0083 9.66669 12.3833 9.29169 12.8416 9.29169C13.3 9.29169 13.675 9.66669 13.675 10.125C13.675 10.5834 13.3083 10.9584 12.85 10.9584Z" fill="#3C3C3C"/>
<path d="M7.01672 10.9584C6.55005 10.9584 6.17505 10.5834 6.17505 10.125C6.17505 9.66669 6.55005 9.29169 7.00838 9.29169C7.46672 9.29169 7.84172 9.66669 7.84172 10.125C7.84172 10.5834 7.47505 10.9584 7.01672 10.9584Z" fill="#3C3C3C"/>
</svg>
