<svg width="30" height="30" viewBox="0 0 30 30" fill="none" xmlns="http://www.w3.org/2000/svg">
<path d="M20.625 10.7874C20.1125 10.7874 19.6875 10.3624 19.6875 9.84989V8.12489C19.6875 6.81239 19.125 5.53739 18.15 4.64989C17.1625 3.74989 15.8875 3.33739 14.5375 3.46239C12.2875 3.67489 10.3125 5.97489 10.3125 8.37489V9.58739C10.3125 10.0999 9.8875 10.5249 9.375 10.5249C8.8625 10.5249 8.4375 10.0999 8.4375 9.58739V8.36239C8.4375 4.99989 11.15 1.89989 14.3625 1.58739C16.2375 1.41239 18.0375 1.99989 19.4125 3.26239C20.775 4.49989 21.5625 6.27489 21.5625 8.12489V9.84989C21.5625 10.3624 21.1375 10.7874 20.625 10.7874Z" fill="#2D77FF"/>
<path d="M18.75 28.4375H11.25C5.47502 28.4375 4.40002 25.75 4.12502 23.1375L3.18752 15.65C3.05002 14.3 3.00002 12.3625 4.31252 10.9125C5.43752 9.6625 7.30002 9.0625 10 9.0625H20C22.7125 9.0625 24.575 9.675 25.6875 10.9125C26.9875 12.3625 26.95 14.3 26.8125 15.625L25.875 23.1375C25.6 25.75 24.525 28.4375 18.75 28.4375ZM10 10.9375C7.88752 10.9375 6.43752 11.35 5.70002 12.175C5.08752 12.85 4.88752 13.8875 5.05002 15.4375L5.98752 22.925C6.20002 24.925 6.75002 26.575 11.25 26.575H18.75C23.25 26.575 23.8 24.9375 24.0125 22.95L24.95 15.4375C25.1125 13.9125 24.9125 12.875 24.3 12.1875C23.5625 11.35 22.1125 10.9375 20 10.9375H10Z" fill="#2D77FF"/>
<path d="M19.275 16.4375C18.575 16.4375 18.0125 15.875 18.0125 15.1875C18.0125 14.5 18.575 13.9375 19.2625 13.9375C19.95 13.9375 20.5125 14.5 20.5125 15.1875C20.5125 15.875 19.9625 16.4375 19.275 16.4375Z" fill="#2D77FF"/>
<path d="M10.525 16.4375C9.82495 16.4375 9.26245 15.875 9.26245 15.1875C9.26245 14.5 9.82495 13.9375 10.5125 13.9375C11.2 13.9375 11.7625 14.5 11.7625 15.1875C11.7625 15.875 11.2125 16.4375 10.525 16.4375Z" fill="#2D77FF"/>
</svg>
