<svg width="30" height="30" viewBox="0 0 30 30" fill="none" xmlns="http://www.w3.org/2000/svg">
<path d="M23.7501 28.4375C21.7251 28.4375 19.8126 27.3875 18.7376 25.6625C18.1626 24.775 17.8376 23.7124 17.8126 22.6249C17.7751 20.7999 18.5501 19.0999 19.9376 17.9499C20.9751 17.0874 22.2751 16.6 23.6126 16.5625C25.2376 16.55 26.7001 17.1125 27.8501 18.2125C29.0001 19.3125 29.6501 20.7875 29.6751 22.375C29.7001 23.4625 29.4251 24.525 28.8751 25.4625C28.5751 25.9875 28.1876 26.475 27.7251 26.8875C26.7001 27.85 25.3251 28.4125 23.8626 28.4375C23.8376 28.4375 23.8001 28.4375 23.7501 28.4375ZM23.7501 18.4375C23.7251 18.4375 23.6876 18.4375 23.6626 18.4375C22.7376 18.4625 21.8626 18.7875 21.1376 19.3875C20.1876 20.175 19.6626 21.3375 19.6876 22.5875C19.7001 23.325 19.9251 24.0499 20.3126 24.6624C21.0751 25.8874 22.4001 26.6375 23.8251 26.5625C24.8126 26.5375 25.7501 26.1625 26.4626 25.5C26.7876 25.2125 27.0501 24.8875 27.2501 24.5375C27.6251 23.8875 27.8126 23.1625 27.8001 22.425C27.7751 21.3375 27.3376 20.3249 26.5501 19.5749C25.8001 18.8374 24.8001 18.4375 23.7501 18.4375Z" fill="#2D77FF"/>
<path d="M23.0623 24.6873C22.8248 24.6873 22.5998 24.5998 22.4123 24.4248L21.1498 23.2249C20.7748 22.8624 20.7623 22.2749 21.1248 21.8999C21.4873 21.5249 22.0748 21.5123 22.4498 21.8748L23.0623 22.4623L25.0248 20.5624C25.3998 20.1999 25.9873 20.2123 26.3498 20.5873C26.7123 20.9623 26.6998 21.5499 26.3248 21.9124L23.7123 24.4373C23.5248 24.5998 23.2873 24.6873 23.0623 24.6873Z" fill="#2D77FF"/>
<path d="M14.9998 16.6248C14.8373 16.6248 14.6748 16.5874 14.5248 16.4999L3.48731 10.1124C3.03731 9.84988 2.88729 9.27484 3.14979 8.82484C3.41229 8.37484 3.98731 8.22481 4.42481 8.48731L14.9873 14.5998L25.4873 8.52485C25.9373 8.26235 26.5123 8.42488 26.7623 8.86238C27.0248 9.31238 26.8623 9.88734 26.4248 10.1498L15.4623 16.4999C15.3248 16.5749 15.1623 16.6248 14.9998 16.6248Z" fill="#2D77FF"/>
<path d="M15 27.9498C14.4875 27.9498 14.0625 27.5248 14.0625 27.0123V15.6748C14.0625 15.1623 14.4875 14.7373 15 14.7373C15.5125 14.7373 15.9375 15.1623 15.9375 15.6748V27.0123C15.9375 27.5248 15.5125 27.9498 15 27.9498Z" fill="#2D77FF"/>
<path d="M14.9998 28.4374C13.8998 28.4374 12.7998 28.1999 11.9498 27.7124L5.27485 24.0124C3.46235 23.0124 2.03735 20.5999 2.03735 18.5249V11.4499C2.03735 9.37487 3.46235 6.97493 5.27485 5.96243L11.9498 2.2624C13.6498 1.2999 16.3248 1.2999 18.0373 2.2624L24.7123 5.96243C26.5248 6.96243 27.9498 9.37487 27.9498 11.4499V18.5249C27.9498 18.6499 27.9498 18.7499 27.9248 18.8749C27.8623 19.1999 27.6249 19.4749 27.3124 19.5749C26.9999 19.6874 26.6498 19.6124 26.3873 19.3999C24.9498 18.1499 22.7248 18.0999 21.2123 19.3124C20.2498 20.0749 19.6873 21.2374 19.6873 22.4749C19.6873 23.2124 19.8873 23.9374 20.2748 24.5624C20.3748 24.7374 20.4748 24.8749 20.5873 25.0124C20.7748 25.2249 20.8499 25.5124 20.7999 25.7874C20.7499 26.0624 20.5749 26.2999 20.3249 26.4374L18.0373 27.6999C17.1873 28.1999 16.0998 28.4374 14.9998 28.4374ZM14.9998 3.43741C14.2248 3.43741 13.4373 3.59991 12.8748 3.91241L6.19984 7.61244C4.98734 8.27494 3.93734 10.0749 3.93734 11.4499V18.5249C3.93734 19.8999 4.99984 21.6999 6.19984 22.3624L12.8748 26.0624C14.0123 26.6999 15.9998 26.6999 17.1373 26.0624L18.5373 25.2874C18.0748 24.4499 17.8249 23.4749 17.8249 22.4749C17.8249 20.6499 18.6374 18.9624 20.0499 17.8374C21.7499 16.4749 24.1748 16.1874 26.0873 16.9999V11.4249C26.0873 10.0499 25.0248 8.24991 23.8248 7.58741L17.1498 3.88739C16.5623 3.59989 15.7748 3.43741 14.9998 3.43741Z" fill="#2D77FF"/>
</svg>
