<svg width="30" height="30" viewBox="0 0 30 30" fill="none" xmlns="http://www.w3.org/2000/svg">
<path d="M14.9998 16.6251C14.8373 16.6251 14.6748 16.5876 14.5248 16.5001L3.48731 10.1126C3.03731 9.85012 2.88729 9.27508 3.14979 8.82508C3.41229 8.37508 3.97479 8.22506 4.43729 8.48756L14.9998 14.6001L25.4998 8.5251C25.9498 8.2626 26.5248 8.42512 26.7873 8.86262C27.0498 9.31262 26.8873 9.88758 26.4498 10.1501L15.4873 16.5001C15.3248 16.5751 15.1623 16.6251 14.9998 16.6251Z" fill="#2D77FF"/>
<path d="M15 27.9501C14.4875 27.9501 14.0625 27.5251 14.0625 27.0126V15.675C14.0625 15.1625 14.4875 14.7375 15 14.7375C15.5125 14.7375 15.9375 15.1625 15.9375 15.675V27.0126C15.9375 27.5251 15.5125 27.9501 15 27.9501Z" fill="#2D77FF"/>
<path d="M15.0002 28.4375C13.9002 28.4375 12.8126 28.2 11.9501 27.725L5.27515 24.0125C3.46265 23.0125 2.05017 20.6 2.05017 18.525V11.4625C2.05017 9.38747 3.46265 6.98753 5.27515 5.97503L11.9501 2.275C13.6626 1.325 16.3377 1.325 18.0502 2.275L24.7252 5.98746C26.5377 6.98746 27.9501 9.39998 27.9501 11.475V18.5375C27.9501 20.6125 26.5377 23.0125 24.7252 24.025L18.0502 27.725C17.1877 28.2 16.1002 28.4375 15.0002 28.4375ZM15.0002 3.43749C14.2127 3.43749 13.4377 3.6 12.8627 3.9125L6.18767 7.62496C4.98767 8.29996 3.92517 10.0875 3.92517 11.475V18.5375C3.92517 19.9125 4.98767 21.7125 6.18767 22.3875L12.8627 26.1C14.0002 26.7375 16.0001 26.7375 17.1376 26.1L23.8126 22.3875C25.0126 21.7125 26.0751 19.925 26.0751 18.5375V11.475C26.0751 10.1 25.0126 8.29996 23.8126 7.62496L17.1376 3.9125C16.5626 3.6 15.7877 3.43749 15.0002 3.43749Z" fill="#2D77FF"/>
<path d="M21.2502 17.4877C20.7377 17.4877 20.3127 17.0627 20.3127 16.5502V12.5252L8.91273 5.95021C8.46273 5.68771 8.31271 5.11268 8.57521 4.67518C8.83771 4.22518 9.40023 4.07516 9.85023 4.33766L21.7127 11.1877C22.0002 11.3502 22.1877 11.6627 22.1877 12.0002V16.5752C22.1877 17.0627 21.7627 17.4877 21.2502 17.4877Z" fill="#2D77FF"/>
</svg>
