<svg width="20" height="20" viewBox="0 0 20 20" fill="none" xmlns="http://www.w3.org/2000/svg">
<path d="M11.1666 14.5167H9.07489C7.70822 14.5167 6.59989 13.3667 6.59989 11.95C6.59989 11.6083 6.88322 11.325 7.22489 11.325C7.56655 11.325 7.84989 11.6083 7.84989 11.95C7.84989 12.675 8.39989 13.2667 9.07489 13.2667H11.1666C11.7082 13.2667 12.1582 12.7833 12.1582 12.2C12.1582 11.475 11.8999 11.3333 11.4749 11.1833L8.11655 10C7.46655 9.775 6.59155 9.29167 6.59155 7.8C6.59155 6.51667 7.59989 5.48334 8.83322 5.48334H10.9249C12.2916 5.48334 13.3999 6.63334 13.3999 8.05C13.3999 8.39167 13.1166 8.675 12.7749 8.675C12.4332 8.675 12.1499 8.39167 12.1499 8.05C12.1499 7.325 11.5999 6.73334 10.9249 6.73334H8.83322C8.29155 6.73334 7.84155 7.21667 7.84155 7.8C7.84155 8.525 8.09989 8.66667 8.52489 8.81667L11.8832 10C12.5332 10.225 13.4082 10.7083 13.4082 12.2C13.3999 13.475 12.3999 14.5167 11.1666 14.5167Z" fill="#3C3C3C"/>
<path d="M10 15.625C9.65833 15.625 9.375 15.3417 9.375 15V5C9.375 4.65833 9.65833 4.375 10 4.375C10.3417 4.375 10.625 4.65833 10.625 5V15C10.625 15.3417 10.3417 15.625 10 15.625Z" fill="#3C3C3C"/>
<path d="M10.0001 18.9584C5.05841 18.9584 1.04175 14.9417 1.04175 10C1.04175 5.05835 5.05841 1.04169 10.0001 1.04169C14.9417 1.04169 18.9584 5.05835 18.9584 10C18.9584 14.9417 14.9417 18.9584 10.0001 18.9584ZM10.0001 2.29169C5.75008 2.29169 2.29175 5.75002 2.29175 10C2.29175 14.25 5.75008 17.7084 10.0001 17.7084C14.2501 17.7084 17.7084 14.25 17.7084 10C17.7084 5.75002 14.2501 2.29169 10.0001 2.29169Z" fill="#3C3C3C"/>
</svg>
