<svg width="24" height="24" viewBox="0 0 24 24" fill="none" xmlns="http://www.w3.org/2000/svg">
<path d="M5.57157 9.42858C5.57158 8.34785 5.84406 7.28457 6.3638 6.33703C6.88354 5.38949 7.63378 4.58827 8.54516 4.00745C9.45654 3.42662 10.4996 3.08493 11.578 3.01397C12.6564 2.94301 13.7353 3.14506 14.7149 3.60146C15.6946 4.05785 16.5433 4.75385 17.1828 5.62511C17.8222 6.49638 18.2316 7.51478 18.3733 8.58619C18.5149 9.65759 18.3841 10.7474 17.9931 11.7549C17.602 12.7624 16.9632 13.655 16.1359 14.3503C15.6456 14.7634 15.2119 15.3257 15.0439 16.0269L14.7773 17.1429H9.223L8.95557 16.0269C8.78671 15.3257 8.35385 14.7634 7.86357 14.3503C7.14473 13.7476 6.56692 12.9944 6.17089 12.144C5.77487 11.2936 5.57028 10.3667 5.57157 9.42858ZM9.53242 18.4286H14.4679L14.1267 19.8497C14.0481 20.1775 13.8615 20.4692 13.5968 20.6779C13.3321 20.8866 13.0049 21.0001 12.6679 21H11.3324C10.9954 21.0001 10.6681 20.8866 10.4035 20.6779C10.1388 20.4692 9.95215 20.1775 9.87357 19.8497L9.53242 18.4286ZM12.0001 1.71429C10.4175 1.71435 8.87325 2.20116 7.57672 3.10869C6.28018 4.01622 5.29414 5.30056 4.75232 6.78752C4.2105 8.27448 4.13912 9.8921 4.54787 11.421C4.95662 12.9499 5.82571 14.3161 7.03728 15.3343C7.38185 15.6249 7.61928 15.9652 7.70585 16.3269L8.623 20.1497C8.76901 20.7585 9.11585 21.3004 9.60757 21.6879C10.0993 22.0754 10.7072 22.286 11.3333 22.2857H12.6687C13.2945 22.2857 13.902 22.0749 14.3934 21.6874C14.8847 21.2999 15.2313 20.7582 15.3773 20.1497L16.2944 16.3269C16.3819 15.9652 16.6193 15.6249 16.9647 15.3343C18.1764 14.316 19.0455 12.9497 19.4542 11.4206C19.8629 9.89152 19.7914 8.27375 19.2494 6.78671C18.7073 5.29967 17.721 4.01535 16.4242 3.10795C15.1274 2.20055 13.5829 1.714 12.0001 1.71429Z" fill="#2D77FF"/>
</svg>
