<svg width="128" height="128" viewBox="0 0 128 128" fill="none" xmlns="http://www.w3.org/2000/svg">
<path opacity="0.2" d="M111.52 59.3066C111.52 85.3866 92.5867 109.813 66.7201 116.96C64.96 117.44 63.0399 117.44 61.2799 116.96C35.4133 109.813 16.48 85.3866 16.48 59.3066V35.8933C16.48 31.52 19.7867 26.56 23.8934 24.9067L53.5999 12.7467C60.2666 10.0267 67.7866 10.0267 74.4533 12.7467L104.16 24.9067C108.213 26.56 111.573 31.52 111.573 35.8933L111.52 59.3066Z" fill="#2D77FF"/>
<path d="M77.3333 56C77.3333 48.64 71.36 42.6666 64 42.6666C56.64 42.6666 50.6666 48.64 50.6666 56C50.6666 61.9733 54.6133 66.9333 60 68.6399V82.6666C60 84.8533 61.8133 86.6666 64 86.6666C66.1866 86.6666 68 84.8533 68 82.6666V68.6399C73.3866 66.9333 77.3333 61.9733 77.3333 56Z" fill="#2D77FF"/>
</svg>
