<svg width="20" height="20" viewBox="0 0 20 20" fill="none" xmlns="http://www.w3.org/2000/svg">
<g clip-path="url(#clip0_1187_2057)">
<path d="M0 15.0001C0 15.5894 0.234126 16.1547 0.650874 16.5714C1.06762 16.9881 1.63285 17.2223 2.22222 17.2223H17.7778C18.3671 17.2223 18.9324 16.9881 19.3491 16.5714C19.7659 16.1547 20 15.5894 20 15.0001V12.7778H0V15.0001Z" fill="#141414"/>
<path d="M0 7.22217H20V12.7777H0V7.22217Z" fill="#EEEEEE"/>
<path d="M17.7778 2.77783H2.22222C1.63285 2.77783 1.06762 3.01196 0.650874 3.42871C0.234126 3.84545 0 4.41068 0 5.00005L0 7.22228H20V5.00005C20 4.41068 19.7659 3.84545 19.3491 3.42871C18.9324 3.01196 18.3671 2.77783 17.7778 2.77783Z" fill="#DD2E44"/>
<path d="M6.23721 10.0333V10.7161H9.37665V10.3066C9.37665 10.1244 9.17165 10.1355 9.17165 10.2722V10.5789H6.71443V10.1011L8.43776 8.37775L8.69943 8.65609L7.13554 10.2372H8.76221C8.76221 10.2372 8.8361 9.75942 9.27943 9.75942L9.7861 10.1122V11.3978H5.21388C5.21388 11.3978 5.09999 12.0005 4.4061 11.9205C4.4061 11.9205 4.88388 11.6022 4.88388 11.2266C4.88388 10.8516 4.57721 10.5555 4.57721 10.5555L5.00943 10.2828C5.00943 10.2828 5.05499 10.5161 5.10054 10.5839C5.14665 10.6516 5.31665 10.7144 5.31665 10.7144H5.89665L5.88888 10.4111L5.80499 10.375L6.23721 10.0333ZM10.8494 10.59L10.7572 10.7161H10.4867C10.4878 10.0766 10.49 8.8172 10.4861 8.80442C10.4805 8.7872 10.6055 8.69664 10.6055 8.69664L10.06 8.39553V11.3989H11.0839L10.8494 10.59ZM13.8817 8.87331V10.7161H13.6089V9.07775L13.2672 9.41942V10.7166H12.9944V9.62442L12.6539 9.96609V9.96942L12.5794 10.04L12.6539 10.0689V10.3228C12.3283 10.1555 11.9711 10.4089 11.9711 10.7172V11.3994H14.2228V8.53331L13.8817 8.87331ZM12.4572 10.7161H12.4372C12.3005 10.7161 12.3178 10.5339 12.5055 10.5339C12.61 10.5339 12.6433 10.59 12.6539 10.64V10.7161H12.4572ZM13.1878 8.37831C13.1878 8.46275 13.1594 8.5322 13.125 8.5322C13.0905 8.5322 13.0628 8.46331 13.0628 8.37831C13.0628 8.29331 13.0911 8.22498 13.125 8.22498C13.16 8.22498 13.1878 8.29331 13.1878 8.37831ZM12.6133 8.79331C12.6133 8.79331 12.7155 8.89053 12.9039 8.86164C13.0917 8.83331 13.1539 8.66275 13.1539 8.66275C13.1539 8.66275 13.2617 8.83886 13.3811 8.81053C13.5011 8.7822 13.6089 8.59442 13.6089 8.59442C13.6089 8.59442 13.6144 8.89553 13.4378 8.92386C13.2617 8.9522 13.1878 8.8272 13.1878 8.8272C13.1878 8.8272 13.0967 8.96386 12.9261 8.97498C12.7555 8.9872 12.6133 8.79331 12.6133 8.79331ZM15.36 10.5739L15.2128 10.7161H14.9739V8.77664L15.1155 8.71386L14.5644 8.39553V11.3989H15.5933L15.36 10.5739Z" fill="#007A3C"/>
<path d="M5.95333 11.74C5.95453 11.7602 5.95158 11.7805 5.94466 11.7995C5.93775 11.8185 5.92701 11.8359 5.91311 11.8506C5.89921 11.8653 5.88245 11.8771 5.86385 11.8851C5.84526 11.8931 5.82522 11.8972 5.80498 11.8971C5.78473 11.8971 5.76471 11.8929 5.74615 11.8848C5.72758 11.8768 5.71086 11.865 5.69702 11.8502C5.68318 11.8355 5.6725 11.818 5.66566 11.799C5.65881 11.7799 5.65594 11.7597 5.65722 11.7395C5.6596 11.7018 5.67627 11.6664 5.70383 11.6406C5.73139 11.6147 5.76776 11.6004 5.80553 11.6005C5.8433 11.6005 5.87962 11.615 5.90709 11.6409C5.93455 11.6669 5.95109 11.7023 5.95333 11.74Z" fill="#007A3C"/>
</g>
<defs>
<clipPath id="clip0_1187_2057">
<rect width="20" height="20" fill="white"/>
</clipPath>
</defs>
</svg>
