<svg width="32" height="32" viewBox="0 0 32 32" fill="none" xmlns="http://www.w3.org/2000/svg">
<path d="M29.5 14C29.5 14.28 29.28 14.5 29 14.5C27.6 14.5 26.77 15.02 26 15.73C25.78 15.92 25.57 16.13 25.35 16.35C24.35 17.36 23.21 18.5 21 18.5C18.82 18.5 16.96 16.91 15.17 15.38C14.08 14.44 13.03 13.54 11.94 13C11.31 12.69 10.66 12.5 10 12.5C9 12.5 8.14 12.7 7.4 13C6.46 13.38 5.72 13.92 5.2 14.41C4.77 14.8 4.42 15.29 4.13 15.85L4.02 16.07V27.98H26V28H4V11H4.02V14.2C4.17 14.01 4.34 13.83 4.51 13.67C4.75 13.45 5.02 13.22 5.33 13C6.42 12.21 7.97 11.5 10 11.5C11.39 11.5 12.64 12.14 13.82 13C14.51 13.5 15.18 14.06 15.83 14.62C17.55 16.1 19.18 17.5 21 17.5C22.79 17.5 23.65 16.64 24.65 15.65C25.06 15.24 25.48 14.81 26 14.45C26.75 13.9 27.69 13.5 29 13.5C29.28 13.5 29.5 13.72 29.5 14Z" fill="#17A7CF"/>
<path d="M29.01 28.48C29.01 28.76 28.79 28.98 28.51 28.98H3.02002V3.48999C3.02002 3.20999 3.24002 2.98999 3.52002 2.98999C3.80002 2.98999 4.02002 3.20999 4.02002 3.48999V11H4.00002V28H26V27.98H29L29.01 28.48Z" fill="#D7D6DC"/>
<path d="M27 27.0001L27.615 26.1641L27.841 26.4341L27.487 27.0001H27ZM28.129 27.0001L27.745 26.4541L27.629 26.2981L27.008 25.4651H27.508L27.882 25.9931L28.007 26.1641L28.619 27.0001H28.129ZM27.992 26.3071L27.771 26.0391L28.099 25.4651H28.58L27.992 26.3071Z" fill="#17A7CF"/>
<path d="M5.42304 5.66809L5.76004 4.88109L5.76604 5.12209L5.01404 3.46509H5.48004L5.85804 4.35609C5.87104 4.38709 5.88504 4.42509 5.90104 4.46909C5.91704 4.51409 5.92804 4.55609 5.93604 4.59709L5.86704 4.62609C5.88004 4.59309 5.89504 4.55509 5.90904 4.51309C5.92404 4.47009 5.93804 4.42509 5.95404 4.37609L6.27604 3.46509H6.74904L6.10404 5.00009L5.84104 5.66809H5.42304Z" fill="#17A7CF"/>
<path d="M6 16.08C5.94 16.08 5.87 16.05 5.82 16C5.8 15.98 5.78 15.95 5.77 15.92C5.76 15.89 5.75 15.86 5.75 15.82C5.75 15.79 5.76 15.76 5.77 15.73C5.78 15.7 5.8 15.67 5.82 15.65C5.92 15.56 6.08 15.56 6.18 15.65C6.22 15.7 6.25 15.76 6.25 15.82C6.25 15.89 6.22 15.95 6.18 16C6.13 16.05 6.07 16.08 6 16.08Z" fill="#17A7CF"/>
<path d="M5.75 24.439C5.75 24.309 5.86 24.189 6 24.189C6.14 24.189 6.25 24.309 6.25 24.439C6.25 24.58 6.14 24.689 6 24.689C5.86 24.689 5.75 24.58 5.75 24.439ZM5.75 22.29C5.75 22.149 5.86 22.04 6 22.04C6.14 22.04 6.25 22.149 6.25 22.29C6.25 22.43 6.14 22.54 6 22.54C5.86 22.54 5.75 22.43 5.75 22.29ZM5.75 20.13C5.75 19.99 5.86 19.88 6 19.88C6.14 19.88 6.25 19.99 6.25 20.13C6.25 20.27 6.14 20.38 6 20.38C5.86 20.38 5.75 20.27 5.75 20.13ZM5.75 17.979C5.75 17.839 5.86 17.729 6 17.729C6.14 17.729 6.25 17.839 6.25 17.979C6.25 18.12 6.14 18.229 6 18.229C5.86 18.229 5.75 18.12 5.75 17.979Z" fill="#17A7CF"/>
<path d="M6 26.85C5.93 26.85 5.87 26.82 5.82 26.77C5.78 26.73 5.75 26.661 5.75 26.6C5.75 26.531 5.78 26.47 5.82 26.42C5.85 26.399 5.87 26.38 5.9 26.37C6 26.33 6.11 26.349 6.18 26.42C6.22 26.47 6.25 26.53 6.25 26.6C6.25 26.661 6.22 26.73 6.18 26.77C6.13 26.819 6.07 26.85 6 26.85Z" fill="#17A7CF"/>
<path d="M8 14.78C7.94 14.78 7.87 14.75 7.82 14.71C7.78 14.66 7.75 14.6 7.75 14.53C7.75 14.46 7.78 14.4 7.82 14.35C7.92 14.26 8.08 14.26 8.18 14.35C8.22 14.4 8.25 14.46 8.25 14.53C8.25 14.59 8.22 14.66 8.18 14.71C8.13 14.75 8.06 14.78 8 14.78Z" fill="#17A7CF"/>
<path d="M7.75 24.54C7.75 24.41 7.86 24.29 8 24.29C8.14 24.29 8.25 24.41 8.25 24.54C8.25 24.68 8.14 24.79 8 24.79C7.86 24.79 7.75 24.68 7.75 24.54ZM7.75 22.54C7.75 22.399 7.86 22.29 8 22.29C8.14 22.29 8.25 22.399 8.25 22.54C8.25 22.68 8.14 22.79 8 22.79C7.86 22.79 7.75 22.68 7.75 22.54ZM7.75 20.54C7.75 20.399 7.86 20.29 8 20.29C8.14 20.29 8.25 20.399 8.25 20.54C8.25 20.68 8.14 20.79 8 20.79C7.86 20.79 7.75 20.68 7.75 20.54ZM7.75 18.53C7.75 18.399 7.86 18.29 8 18.29C8.14 18.29 8.25 18.399 8.25 18.53C8.25 18.67 8.14 18.79 8 18.79C7.86 18.79 7.75 18.67 7.75 18.53ZM7.75 16.53C7.75 16.39 7.86 16.28 8 16.28C8.14 16.28 8.25 16.39 8.25 16.53C8.25 16.67 8.14 16.78 8 16.78C7.86 16.78 7.75 16.67 7.75 16.53Z" fill="#17A7CF"/>
<path d="M8 26.7999C7.93 26.7999 7.87 26.7699 7.82 26.7199C7.78 26.6799 7.75 26.6099 7.75 26.5499C7.75 26.4799 7.78 26.4199 7.82 26.3699C7.92 26.2689 8.08 26.2689 8.18 26.3699C8.22 26.4199 8.25 26.4789 8.25 26.5499C8.25 26.6099 8.22 26.6799 8.18 26.7199C8.13 26.7699 8.07 26.7999 8 26.7999Z" fill="#17A7CF"/>
<path d="M10 14.76C9.93 14.76 9.87 14.73 9.82 14.69C9.8 14.66 9.78 14.64 9.77 14.61C9.76 14.58 9.75 14.54 9.75 14.51C9.75 14.44 9.78 14.38 9.82 14.33C9.91 14.24 10.09 14.24 10.18 14.33C10.22 14.38 10.25 14.44 10.25 14.51C10.25 14.54 10.24 14.58 10.23 14.61C10.22 14.64 10.2 14.66 10.18 14.69C10.13 14.73 10.07 14.76 10 14.76Z" fill="#17A7CF"/>
<path d="M9.75 24.54C9.75 24.399 9.86 24.29 10 24.29C10.14 24.29 10.25 24.399 10.25 24.54C10.25 24.68 10.14 24.79 10 24.79C9.86 24.79 9.75 24.68 9.75 24.54ZM9.75 22.53C9.75 22.389 9.86 22.28 10 22.28C10.14 22.28 10.25 22.389 10.25 22.53C10.25 22.67 10.14 22.78 10 22.78C9.86 22.78 9.75 22.67 9.75 22.53ZM9.75 20.53C9.75 20.389 9.86 20.28 10 20.28C10.14 20.28 10.25 20.389 10.25 20.53C10.25 20.66 10.14 20.78 10 20.78C9.86 20.78 9.75 20.66 9.75 20.53ZM9.75 18.52C9.75 18.38 9.86 18.27 10 18.27C10.14 18.27 10.25 18.38 10.25 18.52C10.25 18.661 10.14 18.77 10 18.77C9.86 18.77 9.75 18.66 9.75 18.52ZM9.75 16.52C9.75 16.38 9.86 16.27 10 16.27C10.14 16.27 10.25 16.38 10.25 16.52C10.25 16.65 10.14 16.77 10 16.77C9.86 16.77 9.75 16.65 9.75 16.52Z" fill="#17A7CF"/>
<path d="M10 26.7899C9.93 26.7899 9.87 26.7689 9.82 26.7199C9.78 26.6699 9.75 26.6099 9.75 26.5399C9.75 26.4789 9.78 26.4199 9.82 26.3699C9.85 26.3399 9.87 26.3299 9.9 26.3089C9.99 26.2689 10.1 26.2989 10.18 26.3699C10.22 26.4199 10.25 26.4789 10.25 26.5399C10.25 26.5799 10.24 26.6089 10.23 26.6399C10.22 26.6699 10.2 26.7009 10.18 26.7199C10.15 26.7409 10.13 26.7599 10.1 26.7699C10.07 26.7899 10.03 26.7899 10 26.7899Z" fill="#17A7CF"/>
<path d="M12 15.6C11.94 15.6 11.87 15.57 11.82 15.52C11.78 15.48 11.75 15.41 11.75 15.35C11.75 15.28 11.78 15.22 11.82 15.17C11.92 15.08 12.09 15.08 12.18 15.17C12.22 15.22 12.25 15.28 12.25 15.35C12.25 15.41 12.22 15.48 12.18 15.52C12.13 15.57 12.07 15.6 12 15.6Z" fill="#17A7CF"/>
<path d="M11.75 24.7C11.75 24.559 11.86 24.45 12 24.45C12.14 24.45 12.25 24.559 12.25 24.7C12.25 24.84 12.14 24.95 12 24.95C11.86 24.95 11.75 24.84 11.75 24.7ZM11.75 22.83C11.75 22.689 11.86 22.58 12 22.58C12.14 22.58 12.25 22.689 12.25 22.83C12.25 22.97 12.14 23.08 12 23.08C11.86 23.08 11.75 22.97 11.75 22.83ZM11.75 20.96C11.75 20.819 11.86 20.71 12 20.71C12.14 20.71 12.25 20.819 12.25 20.96C12.25 21.1 12.14 21.21 12 21.21C11.86 21.21 11.75 21.1 11.75 20.96ZM11.75 19.09C11.75 18.95 11.86 18.84 12 18.84C12.14 18.84 12.25 18.95 12.25 19.09C12.25 19.23 12.14 19.34 12 19.34C11.86 19.34 11.75 19.229 11.75 19.09ZM11.75 17.22C11.75 17.08 11.86 16.97 12 16.97C12.14 16.97 12.25 17.08 12.25 17.22C12.25 17.36 12.14 17.47 12 17.47C11.86 17.47 11.75 17.359 11.75 17.22Z" fill="#17A7CF"/>
<path d="M12 26.819C11.93 26.819 11.87 26.799 11.82 26.75C11.78 26.7 11.75 26.64 11.75 26.569C11.75 26.509 11.78 26.439 11.82 26.399C11.89 26.33 12 26.299 12.1 26.339C12.13 26.349 12.15 26.369 12.18 26.399C12.2 26.42 12.22 26.45 12.23 26.479C12.24 26.509 12.25 26.54 12.25 26.569C12.25 26.639 12.22 26.7 12.18 26.75C12.13 26.8 12.07 26.819 12 26.819Z" fill="#17A7CF"/>
<path d="M14 16.4899C13.93 16.4899 13.87 16.4599 13.82 16.4199C13.78 16.3699 13.75 16.3099 13.75 16.2399C13.75 16.1699 13.78 16.1099 13.82 16.0599C13.92 15.9699 14.08 15.9699 14.18 16.0599C14.22 16.1099 14.25 16.1699 14.25 16.2399C14.25 16.2999 14.22 16.3699 14.18 16.4199C14.13 16.4599 14.07 16.4899 14 16.4899Z" fill="#17A7CF"/>
<path d="M13.75 24.5298C13.75 24.3988 13.86 24.2798 14 24.2798C14.14 24.2798 14.25 24.3988 14.25 24.5298C14.25 24.6698 14.14 24.7798 14 24.7798C13.86 24.7798 13.75 24.6698 13.75 24.5298ZM13.75 22.4598C13.75 22.3188 13.86 22.2098 14 22.2098C14.14 22.2098 14.25 22.3188 14.25 22.4598C14.25 22.5998 14.14 22.7098 14 22.7098C13.86 22.7098 13.75 22.5998 13.75 22.4598ZM13.75 20.3898C13.75 20.2498 13.86 20.1398 14 20.1398C14.14 20.1398 14.25 20.2498 14.25 20.3898C14.25 20.5198 14.14 20.6398 14 20.6398C13.86 20.6398 13.75 20.5198 13.75 20.3898ZM13.75 18.3098C13.75 18.1798 13.86 18.0598 14 18.0598C14.14 18.0598 14.25 18.1798 14.25 18.3098C14.25 18.4508 14.14 18.5598 14 18.5598C13.86 18.5598 13.75 18.4498 13.75 18.3098Z" fill="#17A7CF"/>
<path d="M14 26.859C13.93 26.859 13.87 26.83 13.82 26.78C13.78 26.74 13.75 26.67 13.75 26.609C13.75 26.54 13.78 26.479 13.82 26.429C13.89 26.359 14 26.339 14.1 26.379C14.13 26.389 14.15 26.409 14.18 26.429C14.23 26.479 14.25 26.539 14.25 26.609C14.25 26.67 14.23 26.74 14.18 26.78C14.15 26.809 14.13 26.83 14.1 26.84C14.07 26.85 14.03 26.859 14 26.859Z" fill="#17A7CF"/>
<path d="M16 18.25C15.93 18.25 15.87 18.22 15.82 18.17C15.78 18.12 15.75 18.06 15.75 18C15.75 17.96 15.76 17.93 15.77 17.899C15.78 17.87 15.8 17.839 15.82 17.819C15.91 17.729 16.09 17.729 16.18 17.819C16.22 17.87 16.25 17.929 16.25 18C16.25 18.06 16.22 18.12 16.18 18.17C16.13 18.22 16.07 18.25 16 18.25Z" fill="#17A7CF"/>
<path d="M15.75 24.5099C15.75 24.3699 15.86 24.2599 16 24.2599C16.14 24.2599 16.25 24.3699 16.25 24.5099C16.25 24.6499 16.14 24.7599 16 24.7599C15.86 24.7599 15.75 24.6489 15.75 24.5099ZM15.75 22.3399C15.75 22.1999 15.86 22.0899 16 22.0899C16.14 22.0899 16.25 22.1999 16.25 22.3399C16.25 22.4799 16.14 22.5899 16 22.5899C15.86 22.5899 15.75 22.4789 15.75 22.3399ZM15.75 20.1699C15.75 20.0299 15.86 19.9199 16 19.9199C16.14 19.9199 16.25 20.0299 16.25 20.1699C16.25 20.3099 16.14 20.4199 16 20.4199C15.86 20.4199 15.75 20.3099 15.75 20.1699Z" fill="#17A7CF"/>
<path d="M16 26.9301C15.93 26.9301 15.87 26.9001 15.82 26.8601C15.78 26.8101 15.75 26.7511 15.75 26.6801C15.75 26.6091 15.78 26.5501 15.82 26.5101C15.91 26.4101 16.09 26.4101 16.18 26.5101C16.22 26.5501 16.25 26.6201 16.25 26.6801C16.25 26.7501 16.22 26.8101 16.18 26.8601C16.13 26.9101 16.07 26.9301 16 26.9301Z" fill="#17A7CF"/>
<path d="M18 19.1701C17.93 19.1701 17.87 19.1491 17.819 19.1001C17.78 19.0501 17.75 18.9911 17.75 18.9201C17.75 18.8591 17.78 18.7901 17.819 18.7501C17.91 18.6491 18.08 18.6491 18.179 18.7501C18.219 18.7901 18.249 18.8501 18.249 18.9201C18.249 18.9901 18.219 19.0501 18.179 19.1001C18.13 19.1491 18.069 19.1701 18 19.1701Z" fill="#17A7CF"/>
<path d="M17.75 24.7701C17.75 24.6401 17.859 24.5311 18 24.5311C18.14 24.5311 18.25 24.6401 18.25 24.7701C18.25 24.9111 18.14 25.0311 18 25.0311C17.859 25.0301 17.75 24.9101 17.75 24.7701ZM17.75 22.8191C17.75 22.6891 17.859 22.5691 18 22.5691C18.14 22.5691 18.25 22.6891 18.25 22.8191C18.25 22.9601 18.14 23.0691 18 23.0691C17.859 23.0691 17.75 22.9601 17.75 22.8191ZM17.75 20.8701C17.75 20.7291 17.859 20.6201 18 20.6201C18.14 20.6201 18.25 20.7291 18.25 20.8701C18.25 21.0101 18.14 21.1201 18 21.1201C17.859 21.1201 17.75 21.0101 17.75 20.8701Z" fill="#17A7CF"/>
<path d="M18 26.9791C17.93 26.9791 17.87 26.9501 17.819 26.8991C17.769 26.8491 17.75 26.7901 17.75 26.7291C17.75 26.6601 17.78 26.5991 17.819 26.5491C17.91 26.4591 18.08 26.4491 18.179 26.5491C18.219 26.5991 18.249 26.6591 18.249 26.7291C18.249 26.7901 18.219 26.8491 18.179 26.8991C18.149 26.9291 18.129 26.9391 18.099 26.9601C18.06 26.9701 18.03 26.9791 18 26.9791Z" fill="#17A7CF"/>
<path d="M20 20.06C19.93 20.06 19.87 20.04 19.819 19.991C19.799 19.97 19.78 19.94 19.769 19.911C19.759 19.881 19.749 19.85 19.749 19.82C19.749 19.781 19.759 19.751 19.769 19.72C19.78 19.69 19.799 19.66 19.819 19.64C19.91 19.55 20.09 19.55 20.179 19.64C20.219 19.69 20.249 19.75 20.249 19.82C20.249 19.881 20.219 19.951 20.179 19.991C20.13 20.04 20.069 20.06 20 20.06Z" fill="#17A7CF"/>
<path d="M19.75 25.0401C19.75 24.8991 19.859 24.7901 20 24.7901C20.14 24.7901 20.25 24.8991 20.25 25.0401C20.25 25.1701 20.14 25.2901 20 25.2901C19.859 25.2901 19.75 25.1701 19.75 25.0401ZM19.75 23.3001C19.75 23.1601 19.859 23.0501 20 23.0501C20.14 23.0501 20.25 23.1601 20.25 23.3001C20.25 23.4301 20.14 23.5501 20 23.5501C19.859 23.5501 19.75 23.4301 19.75 23.3001ZM19.75 21.5601C19.75 21.4201 19.859 21.3101 20 21.3101C20.14 21.3101 20.25 21.4201 20.25 21.5601C20.25 21.7011 20.14 21.8101 20 21.8101C19.859 21.8101 19.75 21.7001 19.75 21.5601Z" fill="#17A7CF"/>
<path d="M20 27.0299C19.93 27.0299 19.87 26.9999 19.819 26.9499C19.78 26.8989 19.75 26.8399 19.75 26.7799C19.75 26.7099 19.78 26.6489 19.819 26.5989C19.91 26.4989 20.08 26.4989 20.179 26.5989C20.219 26.6489 20.249 26.7089 20.249 26.7799C20.249 26.8399 20.219 26.8989 20.179 26.9499C20.13 26.9999 20.069 27.0299 20 27.0299Z" fill="#17A7CF"/>
<path d="M22 20.069C21.93 20.069 21.87 20.04 21.819 19.99C21.799 19.969 21.78 19.939 21.769 19.91C21.759 19.88 21.749 19.849 21.749 19.819C21.749 19.75 21.779 19.689 21.818 19.639C21.848 19.619 21.869 19.599 21.898 19.589C21.999 19.549 22.108 19.568 22.178 19.639C22.218 19.689 22.248 19.749 22.248 19.819C22.248 19.88 22.218 19.95 22.178 19.99C22.13 20.04 22.069 20.069 22 20.069Z" fill="#17A7CF"/>
<path d="M21.75 25.0401C21.75 24.8991 21.859 24.7901 22 24.7901C22.14 24.7901 22.25 24.8991 22.25 25.0401C22.25 25.1701 22.14 25.2901 22 25.2901C21.859 25.2901 21.75 25.1701 21.75 25.0401ZM21.75 23.3001C21.75 23.1601 21.859 23.0501 22 23.0501C22.14 23.0501 22.25 23.1601 22.25 23.3001C22.25 23.4301 22.14 23.5501 22 23.5501C21.859 23.5501 21.75 23.4301 21.75 23.3001ZM21.75 21.5601C21.75 21.4201 21.859 21.3101 22 21.3101C22.14 21.3101 22.25 21.4201 22.25 21.5601C22.25 21.7011 22.14 21.8101 22 21.8101C21.859 21.8101 21.75 21.7001 21.75 21.5601Z" fill="#17A7CF"/>
<path d="M22 27.0299C21.93 27.0299 21.87 26.9999 21.819 26.9499C21.78 26.8989 21.75 26.8399 21.75 26.7799C21.75 26.7099 21.78 26.6489 21.819 26.5989C21.91 26.5089 22.09 26.4989 22.179 26.5989C22.219 26.6489 22.249 26.7089 22.249 26.7799C22.249 26.8399 22.219 26.8989 22.179 26.9499C22.13 26.9999 22.069 27.0299 22 27.0299Z" fill="#17A7CF"/>
<path d="M24 19.2699C23.93 19.2699 23.87 19.2409 23.819 19.1899C23.799 19.1699 23.78 19.1399 23.769 19.1099C23.759 19.0809 23.749 19.0499 23.749 19.0199C23.749 18.9509 23.779 18.8899 23.818 18.8399C23.888 18.7699 23.999 18.7399 24.098 18.7799C24.128 18.7999 24.148 18.8189 24.178 18.8399C24.218 18.8899 24.248 18.9499 24.248 19.0199C24.248 19.0499 24.238 19.0809 24.227 19.1099C24.217 19.1399 24.198 19.1709 24.177 19.1899C24.13 19.2399 24.069 19.2699 24 19.2699Z" fill="#17A7CF"/>
<path d="M23.75 24.8C23.75 24.66 23.859 24.55 24 24.55C24.14 24.55 24.25 24.66 24.25 24.8C24.25 24.94 24.14 25.05 24 25.05C23.859 25.05 23.75 24.939 23.75 24.8ZM23.75 22.87C23.75 22.729 23.859 22.62 24 22.62C24.14 22.62 24.25 22.729 24.25 22.87C24.25 23.01 24.14 23.12 24 23.12C23.859 23.12 23.75 23.01 23.75 22.87ZM23.75 20.939C23.75 20.799 23.859 20.689 24 20.689C24.14 20.689 24.25 20.799 24.25 20.939C24.25 21.08 24.14 21.189 24 21.189C23.859 21.189 23.75 21.08 23.75 20.939Z" fill="#17A7CF"/>
<path d="M24 26.9788C23.93 26.9788 23.87 26.9498 23.819 26.8988C23.769 26.8488 23.75 26.7898 23.75 26.7288C23.75 26.6598 23.78 26.5988 23.819 26.5488C23.91 26.4588 24.08 26.4488 24.179 26.5488C24.219 26.5988 24.249 26.6588 24.249 26.7288C24.249 26.7898 24.219 26.8488 24.179 26.8988C24.13 26.9498 24.069 26.9788 24 26.9788Z" fill="#17A7CF"/>
</svg>
