<svg width="241" height="244" viewBox="0 0 241 244" fill="none" xmlns="http://www.w3.org/2000/svg">
<circle cx="123.793" cy="115.415" r="81.6503" fill="#10B385"/>
<path fill-rule="evenodd" clip-rule="evenodd" d="M144.647 97.6064L124.451 89.2338C123.945 89.0242 123.377 89.0241 122.871 89.2338L102.675 97.6064C101.906 97.9253 101.405 98.6752 101.405 99.5068V109.685C101.405 123.699 109.888 136.306 122.882 141.602C123.381 141.805 123.941 141.805 124.44 141.602C137.434 136.306 145.917 123.699 145.917 109.685V99.5068C145.917 98.6752 145.416 97.9253 144.647 97.6064ZM122.465 118.279L132.878 107.882C133.823 106.938 135.357 106.937 136.303 107.882C137.249 108.827 137.249 110.358 136.303 111.303L124.178 123.41C123.232 124.355 121.698 124.354 120.752 123.41L113.982 116.65C113.036 115.705 113.036 114.174 113.982 113.229C114.928 112.285 116.462 112.285 117.408 113.229L122.465 118.279Z" fill="white"/>
<circle opacity="0.2" cx="229.148" cy="46.9345" r="11.8525" fill="#10B385"/>
<circle opacity="0.2" cx="60.5793" cy="231.306" r="11.8525" fill="#10B385"/>
<circle cx="206.101" cy="202.992" r="5.92623" fill="#10B385"/>
<circle cx="16.4616" cy="125.292" r="5.92623" fill="#10B385"/>
<circle opacity="0.2" cx="11.8525" cy="12.694" r="11.8525" fill="#10B385"/>
</svg>
