<svg width="17" height="18" viewBox="0 0 17 18" fill="none" xmlns="http://www.w3.org/2000/svg">
<path d="M16.0667 1.29993C16.0667 0.658268 15.5167 0.0166016 14.875 0.0166016H2.50002C1.12502 0.108268 0.0250244 1.20827 0.0250244 2.58327V15.4166C0.0250244 16.7916 1.12502 17.9833 2.59169 17.9833H15.425C15.7917 17.9833 16.1584 17.7083 16.1584 17.2499C16.1584 16.7916 15.8834 16.5166 15.425 16.5166H2.50002C1.85836 16.5166 1.30836 15.9666 1.30836 15.3249C1.30836 14.6833 1.85836 14.1333 2.50002 14.1333H15.3334C15.7 14.1333 16.0667 13.8583 16.0667 13.3999C16.0667 13.3083 16.0667 13.3083 16.0667 13.3083V13.2166V1.29993ZM14.6917 12.9416H2.50002C2.04169 12.9416 1.67502 13.0333 1.30836 13.2166V2.58327C1.30836 1.9416 1.85836 1.3916 2.50002 1.3916H14.6917V12.9416Z" fill="#060C3D"/>
<path d="M5.25006 5.1499H10.7501C11.1167 5.1499 11.4834 4.8749 11.4834 4.41657C11.4834 3.95824 11.1167 3.7749 10.7501 3.7749H5.25006C4.8834 3.7749 4.6084 4.0499 4.6084 4.41657C4.6084 4.78324 4.8834 5.1499 5.25006 5.1499Z" fill="#060C3D"/>
</svg>
