<svg width="18" height="20" viewBox="0 0 18 20" fill="none" xmlns="http://www.w3.org/2000/svg">
<path d="M7.54551 3.71819H11V4.9C11 5.26364 11.2728 5.62727 11.7273 5.62727C12.1819 5.62727 12.4546 5.35455 12.4546 4.9V1.26365C12.4546 0.900012 12.1819 0.536377 11.7273 0.536377C11.2728 0.536377 11 0.809104 11 1.26365V2.44546H7.54551C7.18187 2.44546 6.81824 2.71819 6.81824 3.17273C6.81824 3.62728 7.18187 3.71819 7.54551 3.71819Z" fill="#060C3D"/>
<path d="M15.2727 2.35464H14.8182C14.4545 2.35464 14.0909 2.62737 14.0909 3.08191C14.0909 3.53646 14.3636 3.80919 14.8182 3.80919H15.2727C15.9091 3.80919 16.4545 4.35464 16.4545 4.991V7.99099H1.45458V4.80918C1.45458 4.17282 2.00003 3.62737 2.63639 3.62737H3.81821V4.80918C3.81821 5.17282 4.09093 5.53645 4.54548 5.53645C5.00002 5.53645 5.27275 5.26373 5.27275 4.80918V1.17283C5.27275 0.809192 5.00002 0.445557 4.54548 0.445557C4.09093 0.445557 3.7273 0.809192 3.7273 1.17283V2.35464H2.54548C1.18185 2.35464 0.0909424 3.44555 0.0909424 4.80918V8.44554V16.6273C0.0909424 17.991 1.18185 19.1728 2.63639 19.1728H15.3636C16.7273 19.1728 17.9091 18.0819 17.9091 16.6273V8.44554V4.80918C17.8182 3.44555 16.6364 2.35464 15.2727 2.35464ZM16.4545 16.6273C16.4545 17.2637 15.9091 17.8092 15.2727 17.8092H2.54548C1.90912 17.8092 1.36367 17.2637 1.36367 16.6273V9.0819H16.3636V16.6273H16.4545Z" fill="#060C3D"/>
</svg>
