<svg width="16" height="18" viewBox="0 0 16 18" fill="none" xmlns="http://www.w3.org/2000/svg">
<path d="M7.21616 16.5923H2.15081V1.478H10.7292V3.60217C10.7292 4.17407 11.2194 4.74596 11.7913 4.74596H13.9972V8.99432C13.9972 9.32111 14.2423 9.64791 14.6508 9.64791C15.0593 9.64791 15.3044 9.40281 15.3044 8.99432V3.84727C15.3044 3.84727 15.3044 3.84727 15.3044 3.76557C15.3044 3.76557 15.3044 3.76557 15.3044 3.68387C15.3044 3.43878 15.2227 3.19368 15.0593 3.03028L14.9776 2.94858L12.4449 0.415908L12.3632 0.334209C12.1998 0.170811 11.9547 0.0891113 11.7096 0.0891113C11.7096 0.0891113 11.7096 0.0891113 11.6279 0.0891113C11.6279 0.0891113 11.6279 0.0891113 11.5462 0.0891113H1.98742C1.41552 0.0891113 0.843628 0.579306 0.843628 1.2329V16.5923C0.843628 17.1642 1.33382 17.7361 1.98742 17.7361H7.21616C7.54296 17.7361 7.86975 17.491 7.86975 17.0825C7.86975 16.674 7.54296 16.5923 7.21616 16.5923Z" fill="#060C3D"/>
<path d="M4.76513 4.74599H8.03309C8.35989 4.74599 8.68669 4.5009 8.68669 4.0924C8.68669 3.68391 8.35989 3.52051 8.03309 3.52051H4.76513C4.43833 3.52051 4.19324 3.7656 4.19324 4.0924C4.19324 4.4192 4.43833 4.74599 4.76513 4.74599Z" fill="#060C3D"/>
<path d="M4.76517 8.01382H11.3011C11.6279 8.01382 11.9547 7.76872 11.9547 7.36022C11.9547 6.95173 11.6279 6.78833 11.3011 6.78833H4.76517C4.43837 6.78833 4.11157 7.03343 4.11157 7.44192C4.11157 7.85042 4.43837 8.01382 4.76517 8.01382Z" fill="#060C3D"/>
<path d="M7.21614 10.0564H4.76517C4.43837 10.0564 4.11157 10.3015 4.11157 10.71C4.11157 11.1185 4.35667 11.3636 4.76517 11.3636H7.21614C7.54293 11.3636 7.86973 11.1185 7.86973 10.71C7.86973 10.3015 7.54293 10.0564 7.21614 10.0564Z" fill="#060C3D"/>
<path d="M15.9579 13.4061C15.8762 13.0793 15.5494 12.8342 15.2226 12.8342L13.9155 12.5891L13.3436 11.2819C13.1802 10.9551 12.9351 10.7917 12.5266 10.7917C12.1181 10.7917 11.873 10.9551 11.7096 11.2819L11.1377 12.5891L9.8305 12.8342C9.50371 12.9159 9.25861 13.0793 9.09521 13.4061C9.01351 13.7329 9.09521 14.0597 9.34031 14.3048L10.3207 15.2852L10.0756 16.6741C9.9939 17.0009 10.1573 17.3277 10.4024 17.5728C10.5658 17.6545 10.7292 17.7362 10.8926 17.7362C11.056 17.7362 11.1377 17.7362 11.3011 17.6545L12.5266 17.0009L13.7521 17.6545C14.0789 17.8179 14.4057 17.8179 14.6508 17.5728C14.8959 17.4094 15.0593 17.0009 14.9776 16.6741L14.7325 15.2852L15.7128 14.3048C15.9579 14.0597 16.0396 13.7329 15.9579 13.4061ZM13.6704 14.7133C13.507 14.8767 13.507 15.0401 13.507 15.2035L13.6704 16.2656L12.8534 15.7754C12.7717 15.6937 12.69 15.6937 12.5266 15.6937C12.3632 15.6937 12.3632 15.6937 12.1998 15.7754L11.3828 16.2656L11.5462 15.2035C11.5462 15.0401 11.5462 14.795 11.3828 14.7133L10.6475 13.8963L11.6279 13.7329C11.7913 13.7329 12.0364 13.5695 12.1181 13.4061L12.5266 12.5074L12.9351 13.4061C13.0168 13.5695 13.1802 13.7329 13.4253 13.7329L14.4057 13.8963L13.6704 14.7133Z" fill="#060C3D"/>
</svg>
