<svg width="180" height="180" viewBox="0 0 180 180" fill="none" xmlns="http://www.w3.org/2000/svg">
<path fill-rule="evenodd" clip-rule="evenodd" d="M90 180C139.706 180 180 139.706 180 90C180 40.2944 139.706 0 90 0C67.6996 0 59.2227 26.7477 43.5 40.1802C24.1782 56.6875 0 62.5948 0 90C0 139.706 40.2944 180 90 180Z" fill="#EAF1FF"/>
<g filter="url(#filter0_d_1295_919)">
<path d="M129.53 64.5317L101.21 44.7175C93.4908 39.3092 81.6417 39.6042 74.2175 45.3567L49.585 64.5809C44.6683 68.4159 40.7842 76.2825 40.7842 82.4775V116.403C40.7842 128.94 50.9617 139.167 63.4992 139.167H116.501C129.038 139.167 139.216 128.989 139.216 116.452V83.1167C139.216 76.4792 134.938 68.3175 129.53 64.5317Z" fill="white"/>
</g>
<path d="M90 123.188C87.9842 123.188 86.3125 121.516 86.3125 119.5V104.75C86.3125 102.734 87.9842 101.062 90 101.062C92.0158 101.062 93.6875 102.734 93.6875 104.75V119.5C93.6875 121.516 92.0158 123.188 90 123.188Z" fill="#2D77FF"/>
<defs>
<filter id="filter0_d_1295_919" x="30.9842" y="30.0445" width="136.032" height="135.922" filterUnits="userSpaceOnUse" color-interpolation-filters="sRGB">
<feFlood flood-opacity="0" result="BackgroundImageFix"/>
<feColorMatrix in="SourceAlpha" type="matrix" values="0 0 0 0 0 0 0 0 0 0 0 0 0 0 0 0 0 0 127 0" result="hardAlpha"/>
<feOffset dx="9" dy="8"/>
<feGaussianBlur stdDeviation="9.4"/>
<feComposite in2="hardAlpha" operator="out"/>
<feColorMatrix type="matrix" values="0 0 0 0 0.0784314 0 0 0 0 0.211765 0 0 0 0 0.45098 0 0 0 0.1 0"/>
<feBlend mode="normal" in2="BackgroundImageFix" result="effect1_dropShadow_1295_919"/>
<feBlend mode="normal" in="SourceGraphic" in2="effect1_dropShadow_1295_919" result="shape"/>
</filter>
</defs>
</svg>
