<?xml version="1.0" encoding="UTF-8"?>
<svg id="Layer_2" data-name="Layer 2" xmlns="http://www.w3.org/2000/svg" viewBox="0 0 1202.27 575.44">
  <g id="Layer_1-2" data-name="Layer 1">
    <g>
      <path d="m398.26,77.61c9.47-9.38,20.75-14.08,33.83-14.08s24.54,4.69,33.83,14.08c9.3,9.39,13.95,20.71,13.95,33.96s-4.65,24.32-13.95,33.7c-9.3,9.39-20.58,14.08-33.83,14.08s-24.37-4.69-33.83-14.08c-9.47-9.38-14.21-20.7-14.21-33.96s4.73-24.32,14.21-33.7Zm18.21,49.33c4.22,4.22,9.43,6.33,15.63,6.33s11.36-2.07,15.5-6.2,6.2-9.3,6.2-15.5-2.11-11.45-6.33-15.75c-4.22-4.3-9.34-6.46-15.37-6.46s-11.19,2.2-15.5,6.59c-4.31,4.39-6.46,9.6-6.46,15.63s2.11,11.15,6.33,15.37Z" fill="#0f9bc2"/>
      <path d="m349.45,430.54c-6.03-2.41-11.8-5.16-17.3-8.26-3.79,29.79-12.79,55.48-26.99,77.09-14.21,21.61-33.15,38.26-56.82,49.98-23.68,11.71-51.7,17.56-84.07,17.56-37.02,0-67.71-7.15-92.08-21.44-24.37-14.29-42.49-33.79-54.37-58.5C5.94,462.27,0,434.16,0,402.65c0-21.01,2.32-42.74,6.97-65.21s11.36-44.9,20.15-67.28l66.89,25.57c-6.55,18.6-12.05,36.68-16.53,54.24-4.48,17.56-6.72,33.84-6.72,48.81,0,16.19,2.84,31.04,8.52,44.55,5.68,13.52,15.32,24.32,28.93,32.41,13.6,8.09,32.28,12.14,56.05,12.14s43.17-3.83,57.21-11.49c14.03-7.66,24.1-18.17,30.22-31.51,6.11-13.34,9.17-28.63,9.17-45.84,0-18.25-3.01-37.19-9.04-56.82-6.03-19.63-13-38.91-20.92-57.85l73.61-27.38,17.82,54.24c3.79,11.54,9.3,21.52,16.53,29.96,7.23,8.44,17.65,12.75,31.25,12.91,13.6,0,22.6-3.01,26.99-9.04,4.39-6.02,6.59-16.27,6.59-30.74,0-2.41-.17-6.88-.52-13.43-.35-6.54-.82-13.73-1.42-21.56-.61-7.83-1.16-14.76-1.68-20.79l69.22-8.52,5.68,72.83c.86,9.99,3.31,17.69,7.36,23.12,4.04,5.42,11.32,8.13,21.82,8.13,6.37,0,11.36-1.76,14.98-5.29,3.62-3.53,6.2-8.27,7.75-14.2,1.55-5.94,2.32-12.53,2.32-19.76,0-9.98-.95-20.36-2.84-31.12-1.9-10.76-3.96-20.49-6.2-29.19-2.24-8.69-3.87-14.85-4.91-18.47l71.03-19.37c3.62,14.12,6.59,29.06,8.91,44.81s3.49,31.47,3.49,47.14c0,21.87-2.89,42.36-8.65,61.47-5.77,19.11-15.46,34.57-29.06,46.36-13.6,11.8-32.37,17.69-56.3,17.69-15.5,0-28.54-3.14-39.13-9.43-10.59-6.28-19.59-13.73-26.99-22.34-8.61,8.44-18.43,15.84-29.44,22.21-11.02,6.37-24.19,9.56-39.52,9.56-7.4,0-14.12-1.2-20.15-3.62Z" fill="#060c3d"/>
      <path d="m725.5,168.14c-2.58-.17-5.86-.6-9.81-1.29-9.47,12.4-22.17,21.69-38.1,27.89-15.93,6.2-34.91,9.9-56.95,11.11l-4.13-24.79c15.84-1.38,30.13-3.83,42.87-7.36,12.74-3.53,22.47-7.96,29.19-13.3-7.75-1.03-15.11-3.31-22.08-6.84-6.97-3.53-12.7-8.52-17.18-14.98-4.48-6.46-6.72-14.68-6.72-24.67,0-12.22,4.35-22.77,13.04-31.64,8.69-8.87,19.5-13.3,32.41-13.3s23.67,4.18,32.28,12.53c8.61,8.35,12.91,19.24,12.91,32.67,0,4.82-.48,9.82-1.42,14.98-.95,5.16-2.37,10.25-4.26,15.24,1.89.17,3.49.35,4.78.52,1.29.17,2.97.35,5.04.52l-3.1,23.24c-3.27-.17-6.2-.34-8.78-.52Zm-19.89-42.1c1.2-4.3,1.81-8.17,1.81-11.62,0-5.85-1.77-10.5-5.29-13.95-3.53-3.44-7.88-5.16-13.04-5.16-6.03,0-10.89,2.07-14.59,6.2-3.7,4.13-5.55,8.61-5.55,13.43s1.55,8.7,4.65,11.62c3.1,2.93,7.1,5.25,12.01,6.97,4.91,1.72,10.11,3.36,15.63,4.91,1.72-3.96,3.18-8.09,4.39-12.4Z" fill="#0f9bc2"/>
      <path d="m562.01,501.05c24.28-5.34,45.58-12.05,63.92-20.15,18.34-8.09,32.58-19.33,42.74-33.7,10.16-14.38,15.24-33.53,15.24-57.47,0-15.84-2.63-33.87-7.88-54.11-5.26-20.23-10.72-38.78-16.4-55.66l74.64-24.28c6.88,19.29,12.14,40.16,15.75,62.63,3.62,22.47,5.42,44.04,5.42,64.7,0,37.54-6.97,69.43-20.92,95.69-13.95,26.26-33.32,47.3-58.11,63.15-24.79,15.84-53.46,27.03-86.01,33.58l-28.41-74.38Z" fill="#060c3d"/>
      <path d="m939.22,302.31c-1.98-6.97-3.92-12.61-5.81-16.92l-51.91-114.68,65.34-32.03,65.34,150.32c4.65,10.5,8.82,20.75,12.53,30.74,3.7,9.99,8.14,18.21,13.3,24.67,5.17,6.46,11.97,9.68,20.4,9.68h10.85v80.07h-10.85c-12.91,0-24.15-1.68-33.7-5.04-9.56-3.36-17.95-7.92-25.18-13.69-7.23-5.77-13.78-12.27-19.63-19.5-8.78,7.92-18.6,14.72-29.44,20.4-10.85,5.68-23.03,10.03-36.55,13.04-13.52,3.02-28.71,4.52-45.58,4.52-15.67,0-28.89-.52-39.65-1.55-10.76-1.03-21.91-2.93-33.45-5.68v-80.07c10.67,2.58,22.25,4.61,34.74,6.07,12.48,1.46,23.98,2.2,34.48,2.2,11.19,0,22.77-.94,34.74-2.84,11.97-1.89,22.12-5.42,30.48-10.59,8.35-5.17,12.53-12.57,12.53-22.21,0-4.3-.99-9.94-2.97-16.92Z" fill="#060c3d"/>
      <path d="m1064.87,47.01L1180.06,0v30.22l-115.19,47.01v-30.22Z" fill="#0f9bc2"/>
      <path d="m1058.93,434.16v-80.07h41.32c12.22,0,20.66-3.87,25.31-11.62,4.65-7.75,6.97-17.65,6.97-29.7s-1.46-24.62-4.39-38.74c-2.93-14.12-5.94-27.89-9.04-41.32l72.06-18.6c3.44,16.7,6.15,33.23,8.14,49.59,1.98,16.36,2.97,32.03,2.97,47.01,0,23.42-3.1,44.42-9.3,63.02-6.2,18.6-16.75,33.32-31.64,44.17-14.9,10.85-35.43,16.27-61.6,16.27h-40.81Zm119.32-294.69l-48.3,48.04-48.04-48.04,48.04-48.3,48.3,48.3Z" fill="#060c3d"/>
    </g>
  </g>
</svg>