<svg xmlns="http://www.w3.org/2000/svg" width="152" height="152" viewBox="0 0 152 152" fill="none">
<path opacity="0.1" d="M102.537 12.6666H49.4633C26.41 12.6666 12.6667 26.41 12.6667 49.4633V102.473C12.6667 125.59 26.41 139.333 49.4633 139.333H102.473C125.527 139.333 139.27 125.59 139.27 102.537V49.4633C139.333 26.41 125.59 12.6666 102.537 12.6666Z" fill="#2D77FF"/>
<path d="M100.637 51.3634C91.2633 42.0534 76.0633 42.0534 66.7533 51.3634C60.23 57.8234 58.2667 67.1967 60.8 75.43L45.9167 90.3134C44.9033 91.39 44.1433 93.48 44.3967 95L45.3467 101.903C45.6633 104.183 47.8167 106.337 50.0967 106.653L57 107.667C58.52 107.857 60.61 107.223 61.6867 106.083L64.2833 103.487C64.9167 102.917 64.9167 101.903 64.2833 101.27L58.14 95.1267C57.2533 94.24 57.2533 92.72 58.14 91.77C59.0267 90.8834 60.5467 90.8834 61.4967 91.77L67.64 97.9134C68.21 98.4834 69.2233 98.4834 69.8567 97.9134L76.57 91.2634C84.74 93.7967 94.1133 91.8334 100.637 85.3734C110.01 75.9367 110.01 60.7367 100.637 51.3634ZM83.9167 76C79.5467 76 76 72.4534 76 68.0834C76 63.7134 79.5467 60.1667 83.9167 60.1667C88.2867 60.1667 91.8333 63.7134 91.8333 68.0834C91.8333 72.4534 88.2867 76 83.9167 76Z" fill="#2D77FF"/>
</svg>