<svg width="30" height="30" viewBox="0 0 30 30" fill="none" xmlns="http://www.w3.org/2000/svg">
<path d="M15 28.45C13.15 28.45 11.2875 27.75 9.83748 26.3625C6.14998 22.8125 2.07498 17.15 3.61248 10.4125C4.99998 4.3 10.3375 1.5625 15 1.5625C15 1.5625 15 1.5625 15.0125 1.5625C19.675 1.5625 25.0125 4.3 26.4 10.425C27.925 17.1625 23.85 22.8125 20.1625 26.3625C18.7125 27.75 16.85 28.45 15 28.45ZM15 3.4375C11.3625 3.4375 6.68748 5.375 5.44998 10.825C4.09998 16.7125 7.79998 21.7875 11.15 25C13.3125 27.0875 16.7 27.0875 18.8625 25C22.2 21.7875 25.9 16.7125 24.575 10.825C23.325 5.375 18.6375 3.4375 15 3.4375Z" fill="#2D77FF"/>
<path d="M13.4375 17.1875C13.2 17.1875 12.9625 17.1 12.775 16.9125L10.9 15.0375C10.5375 14.675 10.5375 14.075 10.9 13.7125C11.2625 13.35 11.8625 13.35 12.225 13.7125L13.4375 14.925L17.775 10.5875C18.1375 10.225 18.7375 10.225 19.1 10.5875C19.4625 10.95 19.4625 11.55 19.1 11.9125L14.1 16.9125C13.9125 17.1 13.675 17.1875 13.4375 17.1875Z" fill="#2D77FF"/>
</svg>
