<svg width="30" height="30" viewBox="0 0 30 30" fill="none" xmlns="http://www.w3.org/2000/svg">
<mask id="mask0_118_5428" style="mask-type:alpha" maskUnits="userSpaceOnUse" x="0" y="0" width="30" height="30">
<rect width="30" height="30" fill="white"/>
</mask>
<g mask="url(#mask0_118_5428)">
<path d="M5.62566 28.6757C2.89051 28.6757 2.89051 26.1892 2.89051 26.1892V19.1027C2.89051 18.1081 2.39321 17.1135 1.64726 16.3675L0.901313 15.7459C0.528338 15.3729 0.528338 14.7513 0.901313 14.3783L1.64726 13.7567C2.39321 13.0108 2.89051 12.0162 2.89051 11.0216V3.81072C2.89051 1.32422 5.62566 1.32422 5.62566 1.32422" stroke="#D6D5DC" stroke-width="1.24325" stroke-linecap="round"/>
<path d="M24.2744 1.32422C24.2744 1.32422 27.0096 1.32422 27.0096 3.81072V10.8972C27.0096 11.8918 27.5069 12.8864 28.2528 13.6324L28.9988 14.254C29.3717 14.627 29.3717 15.2486 28.9988 15.6216L28.2528 16.2432C27.5069 16.9892 27.0096 17.9837 27.0096 18.9783V26.1892C27.0096 26.1892 27.0096 28.6757 24.2744 28.6757" stroke="#D6D5DC" stroke-width="1.24325" stroke-linecap="round"/>
<path d="M6.74463 16.2432H7.86355L10.2257 25.6919V6.2972C10.2257 5.55125 10.8473 5.05396 11.469 5.05396H23.1555" stroke="#19A7CE" stroke-width="1.24325" stroke-linecap="round" stroke-linejoin="round"/>
<path d="M18.0582 15.9945L20.5447 19.5999H18.6798L16.9393 17.2378L15.3231 19.5999H13.5825L16.069 16.1188L13.5825 12.5134H15.4474L17.1879 14.8756L18.8042 12.5134H20.5447L18.0582 15.9945Z" fill="#19A7CE"/>
</g>
</svg>
