<svg width="20" height="20" viewBox="0 0 20 20" fill="none" xmlns="http://www.w3.org/2000/svg">
<path d="M12.5 18.9583H7.50001C3.82501 18.9583 2.70834 17.8416 2.70834 14.1666V5.83329C2.70834 2.15829 3.82501 1.04163 7.50001 1.04163H12.5C16.175 1.04163 17.2917 2.15829 17.2917 5.83329V14.1666C17.2917 17.8416 16.175 18.9583 12.5 18.9583ZM7.50001 2.29163C4.51668 2.29163 3.95834 2.85829 3.95834 5.83329V14.1666C3.95834 17.1416 4.51668 17.7083 7.50001 17.7083H12.5C15.4833 17.7083 16.0417 17.1416 16.0417 14.1666V5.83329C16.0417 2.85829 15.4833 2.29163 12.5 2.29163H7.50001Z" fill="#292D32"/>
<path d="M11.6667 5.20837H8.33334C7.99168 5.20837 7.70834 4.92504 7.70834 4.58337C7.70834 4.24171 7.99168 3.95837 8.33334 3.95837H11.6667C12.0083 3.95837 12.2917 4.24171 12.2917 4.58337C12.2917 4.92504 12.0083 5.20837 11.6667 5.20837Z" fill="#292D32"/>
<path d="M10 16.55C8.94168 16.55 8.08334 15.6917 8.08334 14.6333C8.08334 13.575 8.94168 12.7167 10 12.7167C11.0583 12.7167 11.9167 13.575 11.9167 14.6333C11.9167 15.6917 11.0583 16.55 10 16.55ZM10 13.9583C9.63334 13.9583 9.33334 14.2583 9.33334 14.625C9.33334 14.9917 9.63334 15.2917 10 15.2917C10.3667 15.2917 10.6667 14.9917 10.6667 14.625C10.6667 14.2583 10.3667 13.9583 10 13.9583Z" fill="#292D32"/>
</svg>
