<svg width="180" height="180" viewBox="0 0 180 180" fill="none" xmlns="http://www.w3.org/2000/svg">
<g clip-path="url(#clip0_1228_848)">
<path fill-rule="evenodd" clip-rule="evenodd" d="M90 180C139.706 180 180 139.706 180 90C180 40.2944 139.706 0 90 0C67.6996 0 59.2227 26.7477 43.5 40.1802C24.1782 56.6875 0 62.5948 0 90C0 139.706 40.2944 180 90 180Z" fill="#EAF1FF"/>
<g filter="url(#filter0_f_1228_848)">
<path fill-rule="evenodd" clip-rule="evenodd" d="M91.5 165C126.294 165 154.5 136.794 154.5 102C154.5 67.2061 126.294 39 91.5 39C75.8897 39 69.9559 57.7234 58.95 67.1261C45.4247 78.6812 28.5 82.8164 28.5 102C28.5 136.794 56.7061 165 91.5 165Z" fill="#143673" fill-opacity="0.08"/>
</g>
<path d="M89.25 144C118.245 144 141.75 120.495 141.75 91.5C141.75 62.5051 118.245 39 89.25 39C60.2551 39 36.75 62.5051 36.75 91.5C36.75 120.495 60.2551 144 89.25 144Z" fill="white"/>
<path fill-rule="evenodd" clip-rule="evenodd" d="M127.613 41.8025C132.383 41.6894 136.894 42.8814 140.162 46.1491C143.585 49.572 144.728 54.3516 144.484 59.3793C144.239 64.4061 142.605 70.1035 139.952 76.0599C134.636 87.9973 124.888 101.728 112.054 114.562C99.22 127.396 85.4898 137.143 73.5523 142.46C67.596 145.113 61.8986 146.747 56.8717 146.991C51.8441 147.236 47.0645 146.092 43.6416 142.669C40.3087 139.336 39.1359 134.713 39.3033 129.835C39.4703 124.964 40.9692 119.454 43.4426 113.692C48.6619 101.535 58.5841 87.4216 71.7491 74.2566C85.1535 60.8522 99.5456 50.8054 111.857 45.6653C117.478 43.3187 122.854 41.9153 127.613 41.8025ZM127.79 49.3004C124.283 49.3835 119.863 50.4505 114.747 52.5863C103.568 57.2534 89.9672 66.6451 77.0524 79.5599C64.3731 92.2392 55.0856 105.584 50.3343 116.651C48.0753 121.913 46.923 126.472 46.7989 130.092C46.675 133.704 47.5709 135.992 48.9449 137.366C50.3547 138.776 52.7316 139.684 56.5073 139.5C60.2838 139.316 65.0368 138.042 70.501 135.609C81.4046 130.752 94.3962 121.613 106.751 109.258C119.106 96.9038 128.245 83.9121 133.101 73.0085C135.535 67.5443 136.809 62.7914 136.992 59.0148C137.176 55.2391 136.268 52.8623 134.858 51.4524C133.51 50.1043 131.285 49.2176 127.79 49.3004Z" fill="#2D77FF"/>
<path fill-rule="evenodd" clip-rule="evenodd" d="M79.3726 106.241C108.368 106.241 101.191 107.499 101.191 78.9187C101.191 62.6023 134.089 59.8812 122.12 50.3962C117.23 46.521 111.621 43.4917 105.521 41.5336C100.398 39.8891 95.6794 50.3962 90 50.3962C61.0051 50.3962 53.3848 62.1695 53.3848 90.7502C53.3848 97.5759 38.0906 104.093 40.5264 110.059C42.9479 115.991 46.4516 121.378 50.7966 125.983C60.3826 136.144 64.1858 106.241 79.3726 106.241Z" fill="white"/>
</g>
<defs>
<filter id="filter0_f_1228_848" x="12" y="22.5" width="159" height="159" filterUnits="userSpaceOnUse" color-interpolation-filters="sRGB">
<feFlood flood-opacity="0" result="BackgroundImageFix"/>
<feBlend mode="normal" in="SourceGraphic" in2="BackgroundImageFix" result="shape"/>
<feGaussianBlur stdDeviation="8.25" result="effect1_foregroundBlur_1228_848"/>
</filter>
<clipPath id="clip0_1228_848">
<rect width="180" height="180" fill="white"/>
</clipPath>
</defs>
</svg>
