<svg width="152" height="152" viewBox="0 0 152 152" fill="none" xmlns="http://www.w3.org/2000/svg">
<path d="M95 139.333C92.4033 139.333 90.25 137.18 90.25 134.583V17.4166C90.25 14.82 92.4033 12.6666 95 12.6666C97.5967 12.6666 99.75 14.82 99.75 17.4166V134.583C99.75 137.18 97.5967 139.333 95 139.333Z" fill="#2D77FF"/>
<path opacity="0.1" d="M41.1666 126.667H79.1666V25.3334H41.1666C27.17 25.3334 15.8333 36.67 15.8333 50.6667V101.333C15.8333 115.33 27.17 126.667 41.1666 126.667Z" fill="#2D77FF"/>
<path opacity="0.1" d="M114 126.667H95V25.3334H114C127.997 25.3334 139.333 36.67 139.333 50.6667V101.333C139.333 115.33 127.997 126.667 114 126.667Z" fill="#2D77FF"/>
<path d="M36.4166 82.3334C35.5933 82.3334 34.77 82.1434 34.01 81.8267C33.25 81.51 32.5533 81.0667 31.92 80.4967C31.35 79.8634 30.9066 79.1667 30.5266 78.4067C30.21 77.6467 30.0833 76.8234 30.0833 76C30.0833 74.3534 30.78 72.7067 31.92 71.5034C32.2366 71.25 32.5533 70.9967 32.87 70.7434C33.25 70.49 33.63 70.3 34.01 70.1734C34.39 69.9834 34.77 69.8567 35.15 69.7934C37.3033 69.35 39.4566 70.0467 40.9133 71.5034C42.0533 72.7067 42.75 74.3534 42.75 76C42.75 76.8234 42.56 77.6467 42.2433 78.4067C41.9266 79.1667 41.4833 79.8634 40.9133 80.4967C40.28 81.0667 39.5833 81.51 38.8233 81.8267C38.0633 82.1434 37.24 82.3334 36.4166 82.3334Z" fill="#2D77FF"/>
<path d="M58.5833 82.3334C57.76 82.3334 56.9367 82.1434 56.1767 81.8267C55.4167 81.51 54.72 81.0667 54.0867 80.4967C52.8833 79.2934 52.25 77.71 52.25 76C52.25 75.1767 52.44 74.3533 52.7567 73.5933C53.0733 72.77 53.5167 72.1367 54.0867 71.5033C56.43 69.16 60.6733 69.16 63.08 71.5033C64.22 72.7067 64.9167 74.3534 64.9167 76C64.9167 76.8234 64.7267 77.6467 64.41 78.4067C64.0933 79.1667 63.65 79.8634 63.08 80.4967C62.4467 81.0667 61.75 81.51 60.99 81.8267C60.23 82.1434 59.4067 82.3334 58.5833 82.3334Z" fill="#2D77FF"/>
</svg>
