<svg width="18" height="17" viewBox="0 0 18 17" fill="none" xmlns="http://www.w3.org/2000/svg">
<path d="M13.3357 16.9765H4.6371C2.37548 16.9765 0.461792 15.1929 0.461792 12.8995V7.54848C0.461792 6.10454 1.24466 4.83047 2.46246 4.06604L6.81174 1.51791C8.11653 0.753471 9.76925 0.753471 11.074 1.51791L15.4233 4.06604C16.6411 4.83047 17.424 6.10454 17.424 7.54848V12.8995C17.511 15.1929 15.5973 16.9765 13.3357 16.9765ZM12.2918 15.7025H13.3357C14.9014 15.7025 16.2062 14.4284 16.2062 12.8995V7.54848C16.2062 6.61416 15.6843 5.67985 14.8144 5.17023L10.4651 2.6221C9.59528 2.11247 8.46447 2.11247 7.50763 2.6221L3.15834 5.17023C2.28849 5.67985 1.76658 6.52923 1.76658 7.54848V12.8995C1.76658 14.4284 3.07136 15.7025 4.6371 15.7025H5.76791V12.8995C5.76791 11.1159 7.24667 9.67192 9.07337 9.67192C10.9001 9.67192 12.3788 11.1159 12.3788 12.8995V15.7025H12.2918ZM7.0727 15.7025H10.9871V12.8995C10.9871 11.8803 10.1172 10.946 8.98638 10.946C7.94255 10.946 6.98571 11.7954 6.98571 12.8995V15.7025H7.0727Z" fill="#060C3D"/>
</svg>
