<svg width="21" height="18" viewBox="0 0 21 18" fill="none" xmlns="http://www.w3.org/2000/svg">
<path d="M20.0833 2.21668C20.0833 1.57502 19.35 0.93335 18.7083 0.93335H11.8333C11.1 0.93335 10.4583 1.20835 9.99998 1.75835C9.54164 1.30002 8.89998 0.93335 8.16664 0.93335H1.38331C0.741642 0.93335 0.0999756 1.48335 0.0999756 2.21668V14.225C0.0999756 14.3167 0.0999756 14.3167 0.0999756 14.3167V14.4084C0.0999756 14.775 0.374976 15.1417 0.833309 15.1417H8.16664C8.80831 15.1417 9.35831 15.6917 9.35831 16.3334C9.35831 16.7 9.63331 17.0667 10.0916 17.0667C10.55 17.0667 10.825 16.7917 10.825 16.3334C10.825 15.6917 11.375 15.1417 12.0166 15.1417H19.35C19.7166 15.1417 20.0833 14.8667 20.0833 14.4084C20.0833 14.3167 20.0833 14.3167 20.0833 14.3167V14.225V2.21668ZM9.35831 14.1333C8.99164 13.95 8.62498 13.8584 8.16664 13.8584H1.56664V2.40002H8.16664C8.80831 2.40002 9.35831 2.95002 9.35831 3.59168V14.1333ZM18.525 13.8583H11.8333C11.375 13.8583 11.0083 13.95 10.6416 14.1333V3.50002C10.6416 2.85835 11.1916 2.30835 11.8333 2.30835H18.525V13.8583Z" fill="#060C3D"/>
</svg>
