<svg width="50" height="50" viewBox="0 0 50 50" fill="none" xmlns="http://www.w3.org/2000/svg">
<circle cx="25" cy="25" r="25" fill="#2D77FF"/>
<path d="M35.7749 20.5625C34.4624 14.7875 29.4249 12.1875 24.9999 12.1875C24.9999 12.1875 24.9999 12.1875 24.9874 12.1875C20.5749 12.1875 15.5249 14.775 14.2124 20.55C12.7499 27 16.6999 32.4625 20.2749 35.9C21.5999 37.175 23.2999 37.8125 24.9999 37.8125C26.6999 37.8125 28.3999 37.175 29.7124 35.9C33.2874 32.4625 37.2374 27.0125 35.7749 20.5625Z" fill="white"/>
<path d="M25 26.825C27.1746 26.825 28.9375 25.0621 28.9375 22.8875C28.9375 20.7129 27.1746 18.95 25 18.95C22.8254 18.95 21.0625 20.7129 21.0625 22.8875C21.0625 25.0621 22.8254 26.825 25 26.825Z" fill="#2D77FF"/>
</svg>
