<svg width="20" height="20" viewBox="0 0 20 20" fill="none" xmlns="http://www.w3.org/2000/svg">
<path d="M10.0001 18.9584C9.35008 18.9584 8.71675 18.625 8.28341 18.0417L7.44175 16.9167C7.26675 16.6834 7.03342 16.55 6.78342 16.5334C6.53342 16.525 6.28342 16.6334 6.08342 16.8417L5.60841 16.4167L6.06675 16.8417C4.86675 18.125 3.94175 18.025 3.50008 17.85C3.05008 17.675 2.29175 17.1 2.29175 15.25V5.86669C2.29175 2.16669 3.35841 1.04169 6.85008 1.04169H13.1501C16.6417 1.04169 17.7084 2.16669 17.7084 5.86669V15.25C17.7084 17.0917 16.9501 17.6667 16.5001 17.85C16.0584 18.025 15.1417 18.125 13.9334 16.8417C13.7334 16.625 13.4917 16.5084 13.2251 16.5334C12.9751 16.55 12.7334 16.6834 12.5584 16.9167L11.7167 18.0417C11.2834 18.625 10.6501 18.9584 10.0001 18.9584ZM6.73341 15.275C6.76675 15.275 6.80841 15.275 6.84175 15.275C7.45842 15.3084 8.04175 15.6334 8.43341 16.1584L9.27508 17.2834C9.68341 17.825 10.3084 17.825 10.7167 17.2834L11.5584 16.1584C11.9584 15.6334 12.5334 15.3084 13.1584 15.275C13.7751 15.2417 14.3917 15.5 14.8417 15.9834C15.4751 16.6584 15.8917 16.7417 16.0334 16.6834C16.2334 16.6 16.4501 16.1167 16.4501 15.25V5.86669C16.4501 2.85835 15.9251 2.29169 13.1417 2.29169H6.85008C4.06675 2.29169 3.54175 2.85835 3.54175 5.86669V15.25C3.54175 16.125 3.75841 16.6084 3.95841 16.6834C4.10008 16.7417 4.51675 16.6584 5.15008 15.9834C5.60008 15.525 6.15841 15.275 6.73341 15.275Z" fill="#3C3C3C"/>
<path d="M13.3334 6.45831H6.66675C6.32508 6.45831 6.04175 6.17498 6.04175 5.83331C6.04175 5.49165 6.32508 5.20831 6.66675 5.20831H13.3334C13.6751 5.20831 13.9584 5.49165 13.9584 5.83331C13.9584 6.17498 13.6751 6.45831 13.3334 6.45831Z" fill="#3C3C3C"/>
<path d="M12.5 9.79169H7.5C7.15833 9.79169 6.875 9.50835 6.875 9.16669C6.875 8.82502 7.15833 8.54169 7.5 8.54169H12.5C12.8417 8.54169 13.125 8.82502 13.125 9.16669C13.125 9.50835 12.8417 9.79169 12.5 9.79169Z" fill="#3C3C3C"/>
</svg>
