<svg width="152" height="152" viewBox="0 0 152 152" fill="none" xmlns="http://www.w3.org/2000/svg">
<path opacity="0.1" d="M139.333 49.4633V102.537C139.333 120.333 131.163 132.556 116.787 137.18C112.607 138.636 107.793 139.333 102.537 139.333H49.4633C44.2066 139.333 39.3933 138.636 35.2133 137.18C20.8366 132.556 12.6666 120.333 12.6666 102.537V49.4633C12.6666 26.4099 26.4099 12.6666 49.4633 12.6666H102.537C125.59 12.6666 139.333 26.4099 139.333 49.4633Z" fill="#2D77FF"/>
<path d="M116.787 137.18C112.607 138.636 107.793 139.333 102.537 139.333H49.4634C44.2067 139.333 39.3934 138.636 35.2134 137.18C37.43 120.46 54.9101 107.476 76.0001 107.476C97.0901 107.476 114.57 120.46 116.787 137.18Z" fill="#2D77FF"/>
<path d="M98.6734 73.3401C98.6734 85.8801 88.54 96.0765 76 96.0765C63.46 96.0765 53.3267 85.8801 53.3267 73.3401C53.3267 60.8001 63.46 50.6666 76 50.6666C88.54 50.6666 98.6734 60.8001 98.6734 73.3401Z" fill="#2D77FF"/>
</svg>
