<svg width="20" height="20" viewBox="0 0 20 20" fill="none" xmlns="http://www.w3.org/2000/svg">
<path d="M9.99995 18.9584C9.79995 18.9584 9.59996 18.9334 9.40829 18.8751C5.08329 17.6834 1.94995 13.6417 1.94995 9.25839V5.60004C1.94995 4.66671 2.62496 3.65842 3.49162 3.30009L8.1333 1.40006C9.34163 0.908394 10.6666 0.908394 11.8666 1.40006L16.5083 3.30009C17.375 3.65842 18.05 4.66671 18.05 5.60004V9.25839C18.05 13.6334 14.9083 17.6751 10.5916 18.8751C10.3999 18.9334 10.2 18.9584 9.99995 18.9584ZM9.99995 2.29173C9.52495 2.29173 9.05828 2.38341 8.60828 2.56675L3.96663 4.46672C3.56663 4.63339 3.19995 5.17505 3.19995 5.60838V9.26673C3.19995 13.0917 5.94996 16.6251 9.74162 17.6751C9.90829 17.7251 10.0916 17.7251 10.2583 17.6751C14.05 16.6251 16.8 13.0917 16.8 9.26673V5.60838C16.8 5.17505 16.4333 4.63339 16.0333 4.46672L11.3916 2.56675C10.9416 2.38341 10.475 2.29173 9.99995 2.29173Z" fill="#3C3C3C"/>
</svg>
