<svg width="20" height="20" viewBox="0 0 20 20" fill="none" xmlns="http://www.w3.org/2000/svg">
<path d="M9.76672 18.9583H6.01672C2.55839 18.9583 1.01672 17.4166 1.01672 13.9583V10.2083C1.01672 6.74998 2.55839 5.20831 6.01672 5.20831H9.76672C13.2251 5.20831 14.7667 6.74998 14.7667 10.2083V13.9583C14.7667 17.4166 13.2251 18.9583 9.76672 18.9583ZM6.01672 6.45831C3.25006 6.45831 2.26672 7.44165 2.26672 10.2083V13.9583C2.26672 16.725 3.25006 17.7083 6.01672 17.7083H9.76672C12.5334 17.7083 13.5167 16.725 13.5167 13.9583V10.2083C13.5167 7.44165 12.5334 6.45831 9.76672 6.45831H6.01672Z" fill="#3C3C3C"/>
<path d="M14.1417 11.4333C13.9834 11.4333 13.8334 11.375 13.7167 11.2667C13.5834 11.15 13.5167 10.9833 13.5167 10.8083V10.2083C13.5167 7.44165 12.5334 6.45832 9.76671 6.45832H9.16671C8.99171 6.45832 8.82504 6.38332 8.70838 6.25832C8.59171 6.12499 8.53338 5.95832 8.55004 5.78332C8.79171 3.08332 11.0167 1.04999 13.7334 1.04999C16.3334 1.04999 18.55 2.99165 18.8834 5.56665C18.9167 5.76665 18.9417 6.00832 18.9417 6.25832C18.9417 8.97499 16.9084 11.2 14.2084 11.4417C14.1834 11.4333 14.1667 11.4333 14.1417 11.4333ZM9.90838 5.20832C13.2167 5.24999 14.725 6.74999 14.7667 10.0667C16.4667 9.61665 17.6834 8.07499 17.6834 6.24999C17.6834 6.07499 17.6667 5.90832 17.6417 5.74999C17.3834 3.76665 15.7 2.29165 13.725 2.29165C11.9 2.29165 10.3667 3.50832 9.90838 5.20832Z" fill="#3C3C3C"/>
</svg>
