<svg width="20" height="20" viewBox="0 0 20 20" fill="none" xmlns="http://www.w3.org/2000/svg">
<path d="M10 18.9667C9.09171 18.9667 8.19171 18.7 7.48337 18.175L3.90004 15.5C2.95004 14.7917 2.20837 13.3083 2.20837 12.1333V5.93335C2.20837 4.65001 3.15004 3.28335 4.35837 2.83335L8.51671 1.27501C9.34171 0.966679 10.6417 0.966679 11.4667 1.27501L15.625 2.83335C16.8334 3.28335 17.775 4.65001 17.775 5.93335V12.125C17.775 13.3083 17.0334 14.7833 16.0834 15.4917L12.5 18.1667C11.8084 18.7 10.9084 18.9667 10 18.9667ZM8.95837 2.45001L4.80004 4.00835C4.09171 4.27501 3.46671 5.17501 3.46671 5.94168V12.1333C3.46671 12.925 4.02504 14.0333 4.65004 14.5L8.23337 17.175C9.19171 17.8917 10.8084 17.8917 11.775 17.175L15.3584 14.5C15.9917 14.025 16.5417 12.925 16.5417 12.1333V5.93335C16.5417 5.17501 15.9167 4.27501 15.2084 4.00001L11.05 2.44168C10.4834 2.24168 9.51671 2.24168 8.95837 2.45001Z" fill="#3C3C3C"/>
<path d="M8.88328 11.8583C8.72495 11.8583 8.56662 11.8 8.44162 11.675L7.09995 10.3333C6.85828 10.0917 6.85828 9.69168 7.09995 9.45002C7.34162 9.20835 7.74162 9.20835 7.98328 9.45002L8.88328 10.35L12.025 7.20835C12.2666 6.96668 12.6666 6.96668 12.9083 7.20835C13.15 7.45002 13.15 7.85002 12.9083 8.09168L9.32495 11.675C9.19995 11.8 9.04162 11.8583 8.88328 11.8583Z" fill="#3C3C3C"/>
</svg>
