<svg width="20" height="20" viewBox="0 0 20 20" fill="none" xmlns="http://www.w3.org/2000/svg">
<path d="M10 18.9666C9.09171 18.9666 8.19171 18.6999 7.48337 18.1749L3.90004 15.5C2.95004 14.7916 2.20837 13.3083 2.20837 12.1333V5.93328C2.20837 4.64995 3.15004 3.28328 4.35837 2.83328L8.51671 1.27495C9.34171 0.966618 10.6417 0.966618 11.4667 1.27495L15.625 2.83328C16.8334 3.28328 17.775 4.64995 17.775 5.93328V12.125C17.775 13.3083 17.0334 14.7833 16.0834 15.4916L12.5 18.1666C11.8084 18.6999 10.9084 18.9666 10 18.9666ZM8.95837 2.44995L4.80004 4.00828C4.09171 4.27495 3.46671 5.17495 3.46671 5.94162V12.1333C3.46671 12.925 4.02504 14.0333 4.65004 14.5L8.23337 17.175C9.19171 17.8916 10.8084 17.8916 11.775 17.175L15.3584 14.5C15.9917 14.025 16.5417 12.925 16.5417 12.1333V5.93328C16.5417 5.17495 15.9167 4.27495 15.2084 3.99995L11.05 2.44162C10.4834 2.24162 9.51671 2.24162 8.95837 2.44995Z" fill="#292D32"/>
<path d="M8.88328 11.8583C8.72495 11.8583 8.56662 11.8 8.44162 11.675L7.09995 10.3333C6.85828 10.0917 6.85828 9.69168 7.09995 9.45002C7.34162 9.20835 7.74162 9.20835 7.98328 9.45002L8.88328 10.35L12.025 7.20835C12.2666 6.96668 12.6666 6.96668 12.9083 7.20835C13.15 7.45002 13.15 7.85002 12.9083 8.09168L9.32495 11.675C9.19995 11.8 9.04162 11.8583 8.88328 11.8583Z" fill="#292D32"/>
</svg>
