<svg width="20" height="20" viewBox="0 0 20 20" fill="none" xmlns="http://www.w3.org/2000/svg">
<path d="M13.7416 18.9584H6.24995C4.81661 18.9584 3.74161 18.575 3.07495 17.8167C2.40828 17.0584 2.14994 15.9584 2.32494 14.5334L3.07495 8.28336C3.29161 6.44169 3.75828 4.79169 7.00828 4.79169H13.0083C16.2499 4.79169 16.7166 6.44169 16.9416 8.28336L17.6916 14.5334C17.8583 15.9584 17.6083 17.0667 16.9416 17.8167C16.2499 18.575 15.1833 18.9584 13.7416 18.9584ZM6.99994 6.04169C4.59994 6.04169 4.48328 6.99167 4.30828 8.42501L3.55828 14.675C3.43328 15.7333 3.58328 16.5084 4.00828 16.9834C4.43328 17.4584 5.18328 17.7 6.24995 17.7H13.7416C14.8083 17.7 15.5583 17.4584 15.9833 16.9834C16.4083 16.5084 16.5583 15.7333 16.4333 14.675L15.6833 8.42501C15.5083 6.98334 15.3999 6.04169 12.9916 6.04169H6.99994Z" fill="#292D32"/>
<path d="M10 6C8.9 6 8 5.1 8 4C8 2.9 8.9 2 10 2C11.1 2 12 2.9 12 4C12 5.1 11.1 6 10 6ZM10 3.5C9.72 3.5 9.5 3.72 9.5 4C9.5 4.28 9.72 4.5 10 4.5C10.28 4.5 10.5 4.28 10.5 4C10.5 3.72 10.28 3.5 10 3.5Z" fill="#292D32"/>
</svg>
