<svg width="20" height="20" viewBox="0 0 20 20" fill="none" xmlns="http://www.w3.org/2000/svg">
<path d="M14.1666 17.2916H5.83329C2.15829 17.2916 1.04163 16.175 1.04163 12.5V12.0833C1.04163 11.7416 1.32496 11.4583 1.66663 11.4583C2.46663 11.4583 3.12496 10.8 3.12496 9.99998C3.12496 9.19998 2.46663 8.54165 1.66663 8.54165C1.32496 8.54165 1.04163 8.25831 1.04163 7.91665V7.49998C1.04163 3.82498 2.15829 2.70831 5.83329 2.70831H14.1666C17.8416 2.70831 18.9583 3.82498 18.9583 7.49998V8.33331C18.9583 8.67498 18.675 8.95831 18.3333 8.95831C17.5333 8.95831 16.875 9.61665 16.875 10.4166C16.875 11.2166 17.5333 11.875 18.3333 11.875C18.675 11.875 18.9583 12.1583 18.9583 12.5C18.9583 16.175 17.8416 17.2916 14.1666 17.2916ZM2.29163 12.6333C2.30829 15.5 2.89996 16.0416 5.83329 16.0416H14.1666C16.95 16.0416 17.625 15.55 17.7 13.05C16.5083 12.7666 15.625 11.6916 15.625 10.4166C15.625 9.14165 16.5166 8.06665 17.7083 7.78331V7.49998C17.7083 4.52498 17.15 3.95831 14.1666 3.95831H5.83329C2.89996 3.95831 2.30829 4.49998 2.29163 7.36665C3.48329 7.64998 4.37496 8.72498 4.37496 9.99998C4.37496 11.275 3.48329 12.35 2.29163 12.6333Z" fill="#292D32"/>
<path d="M8.33337 6.04165C7.99171 6.04165 7.70837 5.75831 7.70837 5.41665V3.33331C7.70837 2.99165 7.99171 2.70831 8.33337 2.70831C8.67504 2.70831 8.95837 2.99165 8.95837 3.33331V5.41665C8.95837 5.75831 8.67504 6.04165 8.33337 6.04165Z" fill="#292D32"/>
<path d="M8.33337 12.15C7.99171 12.15 7.70837 11.8667 7.70837 11.525V8.46667C7.70837 8.12501 7.99171 7.84167 8.33337 7.84167C8.67504 7.84167 8.95837 8.12501 8.95837 8.46667V11.525C8.95837 11.875 8.67504 12.15 8.33337 12.15Z" fill="#292D32"/>
<path d="M8.33337 17.2916C7.99171 17.2916 7.70837 17.0083 7.70837 16.6666V14.5833C7.70837 14.2416 7.99171 13.9583 8.33337 13.9583C8.67504 13.9583 8.95837 14.2416 8.95837 14.5833V16.6666C8.95837 17.0083 8.67504 17.2916 8.33337 17.2916Z" fill="#292D32"/>
</svg>
