<svg width="30" height="30" viewBox="0 0 30 30" fill="none" xmlns="http://www.w3.org/2000/svg">
<path d="M20.2375 2.5H9.7625C5.2125 2.5 2.5 5.2125 2.5 9.7625V20.225C2.5 24.7875 5.2125 27.5 9.7625 27.5H20.225C24.775 27.5 27.4875 24.7875 27.4875 20.2375V9.7625C27.5 5.2125 24.7875 2.5 20.2375 2.5Z" fill="#2D77FF"/>
<path d="M13.2248 19.475C12.9748 19.475 12.7373 19.375 12.5623 19.2L9.0248 15.6625C8.6623 15.3 8.6623 14.7 9.0248 14.3375C9.3873 13.975 9.9873 13.975 10.3498 14.3375L13.2248 17.2125L19.6498 10.7875C20.0123 10.425 20.6123 10.425 20.9748 10.7875C21.3373 11.15 21.3373 11.75 20.9748 12.1125L13.8873 19.2C13.7123 19.375 13.4748 19.475 13.2248 19.475Z" fill="white"/>
</svg>
