<svg width="20" height="20" viewBox="0 0 20 20" fill="none" xmlns="http://www.w3.org/2000/svg">
<path d="M12.3251 16.1833C12.2334 16.1833 12.1334 16.1583 12.0501 16.1167C11.7417 15.9583 11.6167 15.5833 11.7667 15.275L13.5501 11.7166C13.6584 11.5083 13.8751 11.375 14.1084 11.375C14.3417 11.375 14.5584 11.5083 14.6667 11.725L16.4501 15.2833C16.6084 15.5917 16.4834 15.9666 16.1667 16.125C15.8584 16.2833 15.4834 16.1583 15.3251 15.8417L14.1084 13.4L12.8917 15.8417C12.7751 16.0583 12.5501 16.1833 12.3251 16.1833Z" fill="#3C3C3C"/>
<path d="M15.5669 15.5499H12.6335C12.2919 15.5499 12.0085 15.2666 12.0085 14.9249C12.0085 14.5833 12.2919 14.2999 12.6335 14.2999H15.5669C15.9085 14.2999 16.1919 14.5833 16.1919 14.9249C16.1919 15.2666 15.9169 15.5499 15.5669 15.5499Z" fill="#3C3C3C"/>
<path d="M14.0998 18.9584C11.4248 18.9584 9.24146 16.7834 9.24146 14.1001C9.24146 11.4167 11.4165 9.24176 14.0998 9.24176C16.7748 9.24176 18.9581 11.4167 18.9581 14.1001C18.9581 16.7834 16.7831 18.9584 14.0998 18.9584ZM14.0998 10.5001C12.1081 10.5001 10.4915 12.1167 10.4915 14.1084C10.4915 16.1001 12.1081 17.7167 14.0998 17.7167C16.0831 17.7167 17.7081 16.1001 17.7081 14.1084C17.7081 12.1167 16.0915 10.5001 14.0998 10.5001Z" fill="#3C3C3C"/>
<path d="M4.05008 10.5833C3.12508 10.5833 2.39175 10.325 1.87508 9.82498C1.32508 9.29165 1.04175 8.48333 1.04175 7.44166V4.17501C1.04175 2.15001 2.15842 1.03333 4.18342 1.03333H7.45008C8.49175 1.03333 9.29175 1.30833 9.83342 1.86666C10.3584 2.40833 10.6168 3.19169 10.5918 4.19169V7.44166C10.6168 8.45833 10.3584 9.25834 9.81675 9.80001C9.27508 10.3417 8.47508 10.5917 7.44174 10.575H4.19175C4.13341 10.5833 4.09175 10.5833 4.05008 10.5833ZM4.18342 2.29167C2.84175 2.29167 2.29175 2.84168 2.29175 4.18335V7.45C2.29175 8.14167 2.44174 8.64164 2.74174 8.93331C3.03341 9.21664 3.50009 9.34168 4.15842 9.33334H7.44174C8.14174 9.35001 8.62508 9.20834 8.91675 8.91668C9.20841 8.62501 9.34175 8.13334 9.32508 7.45834V4.17501C9.34175 3.50834 9.20842 3.03331 8.92509 2.74165C8.63342 2.44165 8.13341 2.29167 7.44174 2.29167H4.18342Z" fill="#3C3C3C"/>
<path d="M7.50003 5.49988H4.1167C3.77503 5.49988 3.4917 5.21654 3.4917 4.87488C3.4917 4.53321 3.77503 4.24988 4.1167 4.24988H7.50003C7.8417 4.24988 8.12503 4.53321 8.12503 4.87488C8.12503 5.21654 7.85003 5.49988 7.50003 5.49988Z" fill="#3C3C3C"/>
<path d="M5.81665 5.49995C5.47498 5.49995 5.19165 5.21662 5.19165 4.87495V4.30829C5.19165 3.96662 5.47498 3.68329 5.81665 3.68329C6.15832 3.68329 6.44165 3.96662 6.44165 4.30829V4.87495C6.44165 5.21662 6.15832 5.49995 5.81665 5.49995Z" fill="#3C3C3C"/>
<path d="M4.1167 8.13329C3.77503 8.13329 3.4917 7.84996 3.4917 7.50829C3.4917 7.16662 3.77503 6.88329 4.1167 6.88329C5.17503 6.88329 6.03337 5.9833 6.03337 4.86664C6.03337 4.52497 6.3167 4.24164 6.65837 4.24164C7.00004 4.24164 7.28337 4.52497 7.28337 4.86664C7.28337 6.66664 5.8667 8.13329 4.1167 8.13329Z" fill="#3C3C3C"/>
<path d="M7.5082 8.13327C6.7332 8.13327 5.99153 7.74161 5.46653 7.04994C5.2582 6.77494 5.31654 6.38324 5.59154 6.1749C5.86654 5.96657 6.2582 6.02492 6.46653 6.29992C6.74986 6.68326 7.12486 6.89161 7.5082 6.89161C7.84986 6.89161 8.1332 7.17494 8.1332 7.51661C8.1332 7.85827 7.84986 8.13327 7.5082 8.13327Z" fill="#3C3C3C"/>
<path d="M7.50008 18.9583C3.94175 18.9583 1.04175 16.0583 1.04175 12.5C1.04175 12.1583 1.32508 11.875 1.66675 11.875C2.00841 11.875 2.29175 12.1583 2.29175 12.5C2.29175 14.9667 4.00842 17.0334 6.31675 17.575L6.09175 17.2C5.91675 16.9 6.00842 16.5167 6.30842 16.3417C6.60009 16.1667 6.99175 16.2583 7.16675 16.5583L8.04174 18.0167C8.15841 18.2083 8.15842 18.45 8.05008 18.6417C7.93342 18.8333 7.72508 18.9583 7.50008 18.9583Z" fill="#3C3C3C"/>
<path d="M18.3332 8.12502C17.9915 8.12502 17.7082 7.84169 17.7082 7.50002C17.7082 5.03335 15.9915 2.96666 13.6832 2.425L13.9082 2.80001C14.0832 3.10001 13.9915 3.48337 13.6915 3.65837C13.3999 3.83337 13.0082 3.74169 12.8332 3.44169L11.9582 1.98336C11.8415 1.79169 11.8415 1.55002 11.9499 1.35836C12.0582 1.15836 12.2665 1.04169 12.4915 1.04169C16.0499 1.04169 18.9499 3.94169 18.9499 7.50002C18.9582 7.84169 18.6749 8.12502 18.3332 8.12502Z" fill="#3C3C3C"/>
</svg>
