<svg width="62" height="62" viewBox="0 0 62 62" fill="none" xmlns="http://www.w3.org/2000/svg">
<path d="M56.8332 28.3391V33.6609C56.8332 35.0817 55.6966 36.2441 54.2499 36.2958H49.1865C46.3965 36.2958 43.8391 34.255 43.6066 31.465C43.4516 29.8375 44.0715 28.3133 45.1565 27.2541C46.1123 26.2725 47.4299 25.7042 48.8765 25.7042H54.2499C55.6966 25.7559 56.8332 26.9183 56.8332 28.3391Z" fill="#2D77FF"/>
<path opacity="0.2" d="M45.1565 27.2541C44.0715 28.3133 43.4515 29.8375 43.6065 31.465C43.839 34.255 46.3964 36.2958 49.1864 36.2958H54.2498V40.0417C54.2498 47.7917 49.0832 52.9583 41.3332 52.9583H18.0832C10.3332 52.9583 5.1665 47.7917 5.1665 40.0417V21.9583C5.1665 14.9317 9.40318 10.0233 15.9907 9.19665C16.6623 9.09332 17.3598 9.04166 18.0832 9.04166H41.3332C42.0048 9.04166 42.6507 9.06746 43.2707 9.17079C49.9357 9.94579 54.2498 14.88 54.2498 21.9583V25.7042H48.8765C47.4298 25.7042 46.1123 26.2725 45.1565 27.2541Z" fill="#2D77FF"/>
<path d="M33.5835 25.1875H18.0835C17.0243 25.1875 16.146 24.3092 16.146 23.25C16.146 22.1908 17.0243 21.3125 18.0835 21.3125H33.5835C34.6427 21.3125 35.521 22.1908 35.521 23.25C35.521 24.3092 34.6427 25.1875 33.5835 25.1875Z" fill="#2D77FF"/>
</svg>
