<svg width="20" height="20" viewBox="0 0 20 20" fill="none" xmlns="http://www.w3.org/2000/svg">
<path d="M10.8333 8.125H5.83325C5.49159 8.125 5.20825 7.84167 5.20825 7.5C5.20825 7.15833 5.49159 6.875 5.83325 6.875H10.8333C11.1749 6.875 11.4583 7.15833 11.4583 7.5C11.4583 7.84167 11.1749 8.125 10.8333 8.125Z" fill="#3C3C3C"/>
<path d="M15.8665 12.3333C14.6082 12.3333 13.5415 11.3999 13.4415 10.1999C13.3748 9.50827 13.6249 8.83329 14.1249 8.34162C14.5415 7.90829 15.1332 7.66663 15.7582 7.66663H17.4998C18.3248 7.69163 18.9582 8.34159 18.9582 9.14159V10.8583C18.9582 11.6583 18.3249 12.3083 17.5249 12.3333H15.8665ZM17.4748 8.91663H15.7665C15.4748 8.91663 15.2082 9.02496 15.0165 9.22496C14.7749 9.45829 14.6582 9.77494 14.6915 10.0916C14.7332 10.6416 15.2665 11.0833 15.8665 11.0833H17.4998C17.6082 11.0833 17.7082 10.9833 17.7082 10.8583V9.14159C17.7082 9.01659 17.6082 8.92496 17.4748 8.91663Z" fill="#3C3C3C"/>
<path d="M13.3334 17.7084H5.83342C2.96675 17.7084 1.04175 15.7834 1.04175 12.9167V7.08335C1.04175 4.51669 2.62506 2.65836 5.08339 2.35003C5.30839 2.31669 5.56675 2.29169 5.83342 2.29169H13.3334C13.5334 2.29169 13.7917 2.30002 14.0584 2.34168C16.5167 2.62502 18.1251 4.49169 18.1251 7.08335V8.2917C18.1251 8.63336 17.8417 8.9167 17.5001 8.9167H15.7667C15.4751 8.9167 15.2084 9.02503 15.0168 9.22503L15.0084 9.23337C14.7751 9.45837 14.6668 9.76667 14.6918 10.0833C14.7334 10.6333 15.2667 11.075 15.8667 11.075H17.5001C17.8417 11.075 18.1251 11.3583 18.1251 11.7V12.9083C18.1251 15.7833 16.2001 17.7084 13.3334 17.7084ZM5.83342 3.54169C5.63341 3.54169 5.44174 3.55834 5.25007 3.58334C3.41674 3.81668 2.29175 5.15002 2.29175 7.08335V12.9167C2.29175 15.0667 3.68341 16.4584 5.83342 16.4584H13.3334C15.4834 16.4584 16.8751 15.0667 16.8751 12.9167V12.3333H15.8667C14.6084 12.3333 13.5418 11.4 13.4418 10.2C13.3751 9.51668 13.6251 8.83337 14.1251 8.35004C14.5584 7.90837 15.1417 7.6667 15.7667 7.6667H16.8751V7.08335C16.8751 5.13335 15.7334 3.79167 13.8834 3.575C13.6834 3.54167 13.5084 3.54169 13.3334 3.54169H5.83342Z" fill="#3C3C3C"/>
</svg>
